<mxfile host="app.diagrams.net" modified="2023-05-02T06:56:17.700Z" agent="Mozilla/5.0 (Windows NT 10.0; Win64; x64) AppleWebKit/537.36 (KHTML, like Gecko) Chrome/111.0.0.0 Safari/537.36 OPR/97.0.0.0" etag="WJS-8tOmOUsNfT_qOfnI" version="21.2.3" type="github">
  <diagram id="C5RBs43oDa-KdzZeNtuy" name="Page-1">
    <mxGraphModel dx="1009" dy="561" grid="1" gridSize="10" guides="1" tooltips="1" connect="1" arrows="1" fold="1" page="1" pageScale="1" pageWidth="827" pageHeight="1169" math="0" shadow="0">
      <root>
        <mxCell id="WIyWlLk6GJQsqaUBKTNV-0" />
        <mxCell id="WIyWlLk6GJQsqaUBKTNV-1" parent="WIyWlLk6GJQsqaUBKTNV-0" />
        <mxCell id="seuhetFpFGsYk8d8X-mT-33" value="Объем раствора, химических материалов и реагентов" style="shape=offPageConnector;whiteSpace=wrap;html=1;" vertex="1" parent="WIyWlLk6GJQsqaUBKTNV-1">
          <mxGeometry x="161.85000000000002" y="40" width="150" height="73.75" as="geometry" />
        </mxCell>
        <mxCell id="seuhetFpFGsYk8d8X-mT-59" value="&lt;font style=&quot;font-size: 12px;&quot;&gt;&lt;font style=&quot;font-size: 12px;&quot;&gt;Вывод:&lt;br&gt;&lt;sub style=&quot;&quot;&gt;Vб.р.&lt;/sub&gt;- Объем бурового раствора&lt;br&gt;Q&lt;sub style=&quot;&quot;&gt;г/п&lt;/sub&gt;&amp;nbsp;- Потребное количество глинопорошка&lt;br&gt;Q&lt;sub style=&quot;&quot;&gt;ут&lt;/sub&gt;&amp;nbsp;- Количество утяжелителя&lt;br&gt;Q&lt;/font&gt;&lt;font style=&quot;font-size: 12px;&quot;&gt;&lt;sub style=&quot;&quot;&gt;р&lt;/sub&gt;&amp;nbsp;- Количество реагента согласно &lt;br&gt;рецептуре раствора&lt;/font&gt;&lt;/font&gt;" style="shape=parallelogram;html=1;strokeWidth=2;perimeter=parallelogramPerimeter;whiteSpace=wrap;rounded=1;arcSize=12;size=0.23;" vertex="1" parent="WIyWlLk6GJQsqaUBKTNV-1">
          <mxGeometry x="77" y="970" width="350" height="130" as="geometry" />
        </mxCell>
        <mxCell id="seuhetFpFGsYk8d8X-mT-64" value="" style="rounded=1;whiteSpace=wrap;html=1;absoluteArcSize=1;arcSize=14;strokeWidth=2;" vertex="1" parent="WIyWlLk6GJQsqaUBKTNV-1">
          <mxGeometry x="140" y="149.69" width="210" height="63.12" as="geometry" />
        </mxCell>
        <mxCell id="seuhetFpFGsYk8d8X-mT-65" value="" style="strokeWidth=2;html=1;shape=mxgraph.flowchart.annotation_2;align=left;labelPosition=right;pointerEvents=1;" vertex="1" parent="WIyWlLk6GJQsqaUBKTNV-1">
          <mxGeometry x="350" y="160" width="26.37" height="50" as="geometry" />
        </mxCell>
        <mxCell id="seuhetFpFGsYk8d8X-mT-66" value="&lt;span style=&quot;border-color: var(--border-color); color: rgb(0, 0, 0); font-family: Helvetica; font-style: normal; font-variant-ligatures: normal; font-variant-caps: normal; font-weight: 400; letter-spacing: normal; orphans: 2; text-indent: 0px; text-transform: none; widows: 2; word-spacing: 0px; -webkit-text-stroke-width: 0px; background-color: initial; text-decoration-thickness: initial; text-decoration-style: initial; text-decoration-color: initial; font-size: 10px;&quot;&gt;H&lt;sub&gt;max&amp;nbsp;&lt;/sub&gt;&lt;/span&gt;&lt;span style=&quot;border-color: var(--border-color); color: rgb(0, 0, 0); font-family: Helvetica; font-size: 12px; font-style: normal; font-variant-ligatures: normal; font-variant-caps: normal; font-weight: 400; letter-spacing: normal; orphans: 2; text-indent: 0px; text-transform: none; widows: 2; word-spacing: 0px; -webkit-text-stroke-width: 0px; background-color: initial; text-decoration-thickness: initial; text-decoration-style: initial; text-decoration-color: initial;&quot;&gt;- в&lt;/span&gt;ерхняя граница интервала бурения" style="text;whiteSpace=wrap;html=1;align=left;" vertex="1" parent="WIyWlLk6GJQsqaUBKTNV-1">
          <mxGeometry x="377.4899999999999" y="156.5" width="263.87" height="31.25" as="geometry" />
        </mxCell>
        <mxCell id="seuhetFpFGsYk8d8X-mT-67" value="&lt;div style=&quot;border-color: var(--border-color);&quot;&gt;&lt;b&gt;&lt;span style=&quot;line-height: 107%;&quot;&gt;&lt;font style=&quot;font-size: 12px;&quot;&gt;Длина интервала по стволу&lt;/font&gt;&lt;/span&gt;&lt;/b&gt;&lt;br&gt;&lt;/div&gt;" style="text;whiteSpace=wrap;html=1;align=left;" vertex="1" parent="WIyWlLk6GJQsqaUBKTNV-1">
          <mxGeometry x="389.51" y="130" width="270.49" height="34.06" as="geometry" />
        </mxCell>
        <mxCell id="seuhetFpFGsYk8d8X-mT-71" value="" style="shape=image;verticalLabelPosition=bottom;labelBackgroundColor=default;verticalAlign=top;aspect=fixed;imageAspect=0;image=data:image/png,iVBORw0KGgoAAAANSUhEUgAAAW4AAABNCAYAAACG7Y6jAAALf0lEQVR4nO2dz4vTzhvHn375nIV0j942e1A+yoLGH+gqKLitq0e1FUEEF6S9u4dexJtd7+4uKHgQmvWily6sgoKtousqXVT0YPMXJLuu+wfke/AzcSZN2knaRid9v6CQdPJMp8mTdyYzz8xkXNd1CQAAgDL8708XAAAAQDQg3AAAoBgQbgAAUAwINwAAKAaEGwAAFAPCDQAAigHhBgAAxYBwAwCAYkC4AQBAMSDcAACgGBBuAABQDAg3AAAoBoQbAAAUA8INAACKAeEGAADFgHADAIBiQLgBAEAxINwAAKAYEG4AAFAMCDcAACgGhBsAABQDwg0AAIoB4QYAAMVIXLgdx6FsNkuZTIYymQytrKzEzss0TS+foM/S0lKg3dLSUiy7tFIul7uej42NjUC7YrEYyw6kE/hRgrgJU6vVXCLyPqVSqa/8Wq2Wq+u6kKemaW6j0ehq12g0XE3TItullXq9LpwLInINw3Db7XZXu8XFxVh2IJ3Aj5IhceE2DEO4OLqu951ntVoV8qzValJ2pVIpll1ayeVywvmQvWn8D07cbKMN/Gj4JNpUYlkWra+vC9+12+2+X4W2t7eF/TNnzkjZbW5uxrJLK47jeNuGYdD4+LiUHX8eo9iBdAI/Gj6JCveDBw+I6NdF4Xn8+HFf+X748MHbNgyDxsbGpOx+/PjhbedyOWm7tMI/VKenp6Xttra2vO2LFy8OtExAPeBHwydR4V5YWCAiotnZWSoUCt73y8vLfeW7trbmbUdxlNXVVW/79OnTfZVBdfxvPcePH5eyazabwv6xY8cGViagHvCjZEhMuE3T9J6oFy5coFOnTnlp/TSXWJYlPKn3798vZef/vX379sX6/bTw9etXYX/Pnj1Sdl++fBH29+7dO7AyAfWAHyVDYsL98OFDIiIqlUo0NjbW0Z4ct7mEr20TER0+fFjKzu9gR44cifX7aeHVq1fetq7r0u2L/AMwSjMVSCfwo2RIRLgty/KaJc6fP09EROPj40Jb97Nnz2Ll/enTJ29b0zRpR+HtdF0feUd5//69t+3vg5C1O3To0EDLBNQDfpQMiQg365TUdZ1mZma872dnZ73t9fV1siwrct58x2SU9m3+QRHFwdIK36HEN2N1w3EcwW5ycnLg5QJqAT9KhkSEm3VK8h2SRJ3hd8+fP4+cN9/BeODAAWm7OA6WVvwdQ//++6+Unb+56ejRowMrE1AP+FFyDF24+U7J69evC2n+5pL79+9HyjtuT3RcB5Nlfn6+6xDefj/z8/MDLe+bN2+E/ampqVh2qCmNNvCj5Phn2D/AOiVzuVxg+/P09LRX+2XNJbLt1P6e6BMnTsQqo6yDpZWPHz8K+5lMJnIeuVxuUMUBigI/So6h1rj5Tslr164FHnPp0iVhP0pzycuXL+MX7j+G4Shzc3Pk/ppOYCifubm5gZY3bscwz6jHwQP4UZIMVbhZp6SmaaHDyScnJ0nXdW//yZMn0vnz7dSFQkFa+PjfO3jwYNS/lSr8cfCLi4tS57Ddbgv5jHoc/KgDP0qWoQo365QsFotdw+34TsvV1VVhroMwHMcRLnqUHmzeTnbATlr59u2bsC/bMeS3kx1oAToZZn9InOaKOKTRjxzH8c5huVz+08URGJpw852SN27c6Hrs2bNnhX2Z5pJ3794J+7IdjH472QE7aeX169fCvmzHEG8XZaAFSCdp9CNeK/62DtOhCTfrlNR1veefnpqaIk3TvP2nT5/2zP/z588decjA20UZsJNW+Dj4KO39/om9QHyG2R/ium4i/yGNfsRrxd8WojgU4eY7JW/evCllUywWve3l5eWezSUvXrzwtqM4Cm8XZcBOWok70RZvN+px8CCdfsQHGYxEjZt1ShLJz3HNhsIzejWX8Bc8Sgdj3AE7UVAljtsfzy7bMTTsOHigFvCj5BmKcPMjJWWbImZmZqSbS+JOHem3G/WpI/1x8LITbfntRj0OftSBHyXPwIWb75S8evVqJFu+6aLbHN1v374V9mV7ov12w5o6UpU4bj4OPspEW7xdr3bJZrNJ+XyeMpkMTUxMCA/PjY0NYaHYfD4vNJFZltWRLjv9r2VZVC6XaWJiQrA3TZNM06RsNhu6ULXjOMLCt0FvOBsbG97/ymazUmVKK2nyo2az2fGGa5pmx3F8ntlsVjiG+Q9bFH1iYqKvRdED6b6yWXTYenOapkW29S8kXK/XA4/j14qMsmZloVAQFiIddfg1/qIs2swvslypVEKP819PInILhYKX5l+sWSY9l8v1LB/7XV3XBR/yr03aarUC7f1rJvqPbbVaQtlG3ZfS5kftdlv4T/61L/3Xn9e7oMXLWbpt29LnphcDFe52uy2cuEajEenjXyE6zAn4EyNzIzP4kx3FLo3w14qI3Gq1KmXXarWk7Ni1ZOnsoZnL5YQ027Y7bhSWXqlUXNu2Xdu2hfRu8KIddKPwZQ+iWq26mqa5rVZL+K9MWFhZDMNwbdt2DcPoKjppJ61+FFYBbbfbrqZpbqFQcG3bFlan59OY2POVxUajIXVuZBiocPtrNP1+gmrtjUYjcg2sH7u04r9WsjecrJ1t20Jtt1KpeIKqaZpbq9WE4/labq/0MPhrHHaT9Lr+9XpdKDcvFGyfiTZIpx+57u/KIau58/B58pVNwzA6Kpv8//xrhTvoFaHfD/9n2+22axhGh7j3OiGtViuWXVppNBodr3qGYXS8Evqp1+ux7FxXvGGCblI+PagGy9K7PXB7HcPXDmUFhn9Nr1QqA3/lVZm0+pFt214ei4uLXcvDC3NQkxmfPkgGmtugRZsXbn+N2f/p9aoV1S6t9HorCnuYsZpOVDsGOy6sT4LdyGHC2O1mdF3RP8L6RnhfkH1o+1/pR/Vh7yetfuS60fyEf1AE9Zmw9EH3gwy8cxIAP7yoBtVgetWEefGU6bAOqxHzohEFJgaj3Jb9N5CEH7luND9hxwU1qbjub9+J0mkrQ2KLBYPRhY/XDRqQxU80FDQKlg/jDIsRZmsWdltoloWYRhla7TiOF+7HD88GyZOEHxH9vs69RmTzIYVBoz6bzaYXGn3y5MmueUUFwg2GDovXDZsbhp9oKGhoMZvqt5sosyl+w9JN0/RmhYwy1cGVK1doc3OTiIjW1tak7cDgScKPiH6Pru41Ipt/EASN+uRX9hn0ZHYQbjB02AT7Yc7L0sNqOOxGiju3DBsQwZAdaVsul2ltbY3u3btHRERbW1vSA4DA4EnCj/hh+L38hB9AFDTqk82LNIxZDyHcYKjwE+yHTT7EastB6WE3UtBoNiKi79+/C/uO41A+nxcWz9i9e7eXFjaizTRNWlhYoEePHgkToPG1LNM0IeQJkZQf8c0xu3btIqJffhI0epb9XpQHxcrKitR6A72AcIOhwjcvBM0Nw99QvSYn+vnzJzmOQ8VikcrlMlmW5aWxm6fdbns3IxsmTUR0+/Zt79idnR2yLIvy+TzdunXL+z6TydDKygqZpkmXL1+marVKMzMzQv53794lx3G8Y3Z2duROBOiLpPxoe3tbOI75yZ07d4TjLMvymt5kJ7lbWlqic+fOdawJEIuBdnUC4KNXtAcfVhYUx+sfmUf/hXr5Q6/Cwj7ZYBl/WB+f5rqd4ab+KICgYdeIMkmOP+lHuq53HMf7Q1iEStC4Fv+AoLhAuMFQYQOfwuJYZea24eebKJVKoQM1arWad7Pout4REsbCvDRN84ZBM9jQZU3TQmP7+bKOWvz/nyZJP+L9pFQqBT4o+JDBsHz4eUtyudxAxwBkXDehJTIAAAAMBLRxAwCAYkC4AQBAMSDcAACgGBBuAABQDAg3AAAoBoQbAAAUA8INAACKAeEGAADFgHADAIBiQLgBAEAxINwAAKAYEG4AAFAMCDcAACgGhBsAABQDwg0AAIoB4QYAAMWAcAMAgGL8HxrVb4Rg21BSAAAAAElFTkSuQmCC;" vertex="1" parent="WIyWlLk6GJQsqaUBKTNV-1">
          <mxGeometry x="149.92999999999995" y="161.25" width="190.13" height="40" as="geometry" />
        </mxCell>
        <mxCell id="seuhetFpFGsYk8d8X-mT-73" value="&lt;span style=&quot;border-color: var(--border-color); color: rgb(0, 0, 0); font-family: Helvetica; font-style: normal; font-variant-ligatures: normal; font-variant-caps: normal; font-weight: 400; letter-spacing: normal; orphans: 2; text-indent: 0px; text-transform: none; widows: 2; word-spacing: 0px; -webkit-text-stroke-width: 0px; background-color: initial; text-decoration-thickness: initial; text-decoration-style: initial; text-decoration-color: initial; font-size: 10px;&quot;&gt;H&lt;sub&gt;min&amp;nbsp;&lt;/sub&gt;&lt;/span&gt;&lt;span style=&quot;border-color: var(--border-color); color: rgb(0, 0, 0); font-family: Helvetica; font-size: 12px; font-style: normal; font-variant-ligatures: normal; font-variant-caps: normal; font-weight: 400; letter-spacing: normal; orphans: 2; text-indent: 0px; text-transform: none; widows: 2; word-spacing: 0px; -webkit-text-stroke-width: 0px; background-color: initial; text-decoration-thickness: initial; text-decoration-style: initial; text-decoration-color: initial;&quot;&gt;- нижняя&amp;nbsp;&lt;/span&gt;граница интервала бурения" style="text;whiteSpace=wrap;html=1;align=left;" vertex="1" parent="WIyWlLk6GJQsqaUBKTNV-1">
          <mxGeometry x="377.4899999999999" y="180.75" width="263.87" height="31.25" as="geometry" />
        </mxCell>
        <mxCell id="seuhetFpFGsYk8d8X-mT-74" value="" style="rounded=1;whiteSpace=wrap;html=1;absoluteArcSize=1;arcSize=14;strokeWidth=2;" vertex="1" parent="WIyWlLk6GJQsqaUBKTNV-1">
          <mxGeometry x="140" y="254.75" width="210" height="63.12" as="geometry" />
        </mxCell>
        <mxCell id="seuhetFpFGsYk8d8X-mT-75" value="" style="strokeWidth=2;html=1;shape=mxgraph.flowchart.annotation_2;align=left;labelPosition=right;pointerEvents=1;" vertex="1" parent="WIyWlLk6GJQsqaUBKTNV-1">
          <mxGeometry x="350" y="265.06" width="26.37" height="50" as="geometry" />
        </mxCell>
        <mxCell id="seuhetFpFGsYk8d8X-mT-77" value="&lt;div style=&quot;border-color: var(--border-color);&quot;&gt;&lt;b&gt;Нарабатываемый объем при бурении объемом бурового раствора&lt;/b&gt;&lt;br&gt;&lt;/div&gt;" style="text;whiteSpace=wrap;html=1;align=left;" vertex="1" parent="WIyWlLk6GJQsqaUBKTNV-1">
          <mxGeometry x="385.88" y="230" width="276.86" height="34.06" as="geometry" />
        </mxCell>
        <mxCell id="seuhetFpFGsYk8d8X-mT-79" value="&lt;font style=&quot;font-size: 12px;&quot;&gt;&lt;span style=&quot;border-color: var(--border-color); color: rgb(0, 0, 0); font-family: Helvetica; font-style: normal; font-variant-ligatures: normal; font-variant-caps: normal; font-weight: 400; letter-spacing: normal; orphans: 2; text-indent: 0px; text-transform: none; widows: 2; word-spacing: 0px; -webkit-text-stroke-width: 0px; background-color: initial; text-decoration-thickness: initial; text-decoration-style: initial; text-decoration-color: initial;&quot;&gt;n&lt;sub style=&quot;&quot;&gt;p&amp;nbsp;&lt;/sub&gt;&lt;/span&gt;&lt;span style=&quot;border-color: var(--border-color); color: rgb(0, 0, 0); font-family: Helvetica; font-style: normal; font-variant-ligatures: normal; font-variant-caps: normal; font-weight: 400; letter-spacing: normal; orphans: 2; text-indent: 0px; text-transform: none; widows: 2; word-spacing: 0px; -webkit-text-stroke-width: 0px; background-color: initial; text-decoration-thickness: initial; text-decoration-style: initial; text-decoration-color: initial;&quot;&gt;-&amp;nbsp;&lt;/span&gt;&lt;/font&gt;норма бурового раствора в зависимости от&lt;br&gt;&amp;nbsp;коммерческой скорости бурения, диаметра долота и&amp;nbsp; &amp;nbsp; &amp;nbsp; &amp;nbsp;степени стабилизации бурового раствора, м&lt;sup&gt;3&lt;/sup&gt;/м" style="text;whiteSpace=wrap;html=1;align=left;" vertex="1" parent="WIyWlLk6GJQsqaUBKTNV-1">
          <mxGeometry x="376.37" y="265.06" width="320" height="60.62" as="geometry" />
        </mxCell>
        <mxCell id="seuhetFpFGsYk8d8X-mT-80" value="" style="shape=image;verticalLabelPosition=bottom;labelBackgroundColor=default;verticalAlign=top;aspect=fixed;imageAspect=0;image=data:image/png,iVBORw0KGgoAAAANSUhEUgAAAPcAAABECAYAAABd0qOIAAAKX0lEQVR4nO2dz2vUThTAX798rypxPYpI04OiUtG0FV0EBZu1ehS2vXhRkF1PelBZ8GStLogHQbuCBS/SrRc9tKUqWHBXsbVKAooeTA6eE4r6B+R7KJPvZDbZTH7tZtP3gUCym5e8zc6befPmzaTPsiwLEATJHP90WwEEQZIBjRtBMgoaN4JkFDRuBMkoaNwIklHQuBEko6BxI0hGQeNGkIyCxo0gGQWNG0EyCho3gmQUNG4EySho3AiSUdC4ESSjoHEjSEZB40aQjILGjSAZBY0bQTIKGjeCZJTIxl0oFKCvr89zW1xcdJXTdb2t3MDAQFTVECQwpmnC9u3bfcsvD35lfHx83FVOVdVQci1YETEMwyqVShYAODZJkixN09rKKopiSZLUIlsqlSzDMKKqhiCBmZ2dbSmLUdA0zSoWiy1lvFar+cq52YafHE1k47asDQNnlVhYWOCSXVhYcMgVi8U4VEKQULAGJYpi5Gs2Go1QFUbUiiaWPnculwNZlh2fjY2NBb6OIAjw8OHDOFRCkMDoug5ra2uOzzRNA1VVI133z58/juOzZ89yyf3+/TuUHCG2gFp/f38oufn5eXv/0aNHkMvl4lIJQQIxMzMDAACSJDk+f/78eaTrfv361XE8MjLCJccad9AGMzbj3r17d2AZ0zShXq8DAIAsy/yBAgRJgOnpaQAAuHjxIhSLRfvzubm5SNf98uWLvS9JEncD9vbtW3uf9Yx56OpQ2MzMDKyvrwMAQLVa7aYqyCanXq/bZfHcuXNw4sQJ+7uorjnt6g8NDXHLra6u2vuHDx8OfN+uGbdpmnD37l0AACiVSjA4ONgtVRAEnj59CgAbZTGXy8GpU6cc34d1zXVdB03T7OPjx49zy5HKBgDg2LFjge8dm3Hv2rXLcazretvzb968Cevr6yAIAty6dSsuNTJBvV535A+Uy2UwTdP1vKGhIcf4p99zTwPNZtPWOWqwKg50XYdXr14BwP9Bq/7+fkff+/Xr16Gu/ePHD8fx3r17Q8nt2bMn+M3DhPbdYMP9jUbD81xN0+zzqtVqXCr0PIZhWLIstwwrss+p3XmiKKY+R4AuK2mgUqm4DnvVajXHs/XL23CjWq3a8oIgBNYpqBxNV9zycrkMAACiKMK1a9e6oULqUFUVRkZGYHV1FWq1GliWBbVazf6eBFdM04RCoWC3NCyapsGbN286onNYtmzZ0m0VHJBAGh1EA4AW1zzMc6WDYsPDw9xynz9/tvdHR0cD3xegC33uZrNpF8wHDx50+va+6bJRt2azGUqvnTt3wsDAACwvL8OlS5cAAGDfvn0t512+fBnW1tagWCyCpmktlQAAwK9fv0LpkASqqkKhUHB0F0h8RRRFx7nNZhOGhoZcuyBJQQfSLly44PiOdc2fPHkS+Pp0JXzy5MlQcocOHQp8XwCIzy+iXW1o45aTDCBZluO6dSC83Nm4tnbdkaDQ7mulUrHdxNnZ2ZZzBUFIZVeH/N+CIDhSJ+kywKYwdzJLkZQHr/JIu8cQ0DVXFKWrZSrWTo+fQnQ6XZj+y2aD7q9VKhVLEARPw6UrLTfj7xaGYVjVatWufGRZtjRNs0RRtGRZtmZnZ+3vyO/rVMyAbpC8nhlroEFyu9k+e9gtLB0zbsMwLFEU7YKK+MNOOGjXotHnKYrSQS35oI2cbLTOlUql44FA0ioLgtD23qTcBvU4aW8kSFCMlpMkiVuOJTHjZlsY0gr5PUga2iXajC09bQDtnhvdAoWNrHYKRVEcv4tn9mBSED38JmSwrjlv+aUnoQTpatByUWalxRpQEwTB9XM6YeXOnTvc6XdkbFEQhNC5670Km8Rw48YNz+dGZzKFjawmja7rUC6X4eDBg3Z+gyAIsLa2BuVy2U5D7hR0II0EML04ffq045gnam6apiMzjTcoxsrxJr24Eatxe4X6ScKKJEm+D5KG/Mi0FtgkoQ0WYCMl0ot3797Z+3TaZBowTRPK5TKIogjT09MgSRIoigKiKMLw8DA0Gg34+fMnTExMwMDAQMeMnGSkiaLomx2Zz+cdDdfLly99r//9+3fH8dGjR7n0YuV4k15cCd3mu0AHdYhbTruMcUaSsw7tCvr1u2g3N23PmHYx6a4aMNFy+vcmHS2nyyRvgIxdkMTPNaeDoUHMLGzSixuJGzf5LC2LMPTKUBhtFO0CkGw0N20oimJHyGncCm+j0bAkSUo8sBYmlsMuKuI3IkGXsyBBMVou6nBxokksdMLK1NRUkrfKFGy/68CBA57nfvz40d4PMy0waQYHB2FpackRMyH55HRMAWDD/f306VPic/rpjDTeWM7Y2Fgg1zxsHISWC5L04kasxs0qc+XKFQDYmM7J+xDZDLK4F0pcWloCa8NjSWTL5/ORdWT7Xe3SFl+8eGHv+xUGki1Gnis9aYMEvMjigIVCIbFJHX///k3kujzQgbTz588HkqWNtN0cb1VVHRVXu8q5ndz+/fsD6ddCpHafge0vAISbyEBfJ+oCdb0I/fv91vDi7W+z63EB5fYtLCy0jDvz3DssdOZdp2MExO0N059ln6HXOoHsebyuP5v0ErV78m+0qsEbUgNNTk4GdrPoyOJmnOdNTzZgl/xhYV1bgqqqcP36dXj27BmsrKzAxMQEVCoVuHr1Kty/fx+mpqZgdXUVVFWFM2fO2N8BbOSvz83NgaZpsLi4GGo9vHbk83mwLCvWa/JAT+0cHR0NPA9g69atjuP5+XnXZ0OPXgDwL0G2vLzsOI7cPYlUNTCwEcKwAQG65ktjtlXS0K2oXzSXft7kXNICiKJoKYpiGYbhaGXI/ySKYkvOt2U5W9Y05alHhS2fUTe31t8wjBYviIewcu2I1bjZiGJYl4tOC9xssNFvv8rNK/pfLBY93To6rdWt25NV46bTSOPa6DLutYY/zxrlYeT8iNW46UIRpa/c7Zlj3YTtr/nBLtxQLBZ914ynJ2q4VQBZNe64DZs17nbneZVltzX/4/B+LSvmPnccfSl6GCjqUEAvMj4+HmgV2FwuB0tLS9zn02mt7VJaCdu2beO+dtqJWjaTuH4ul0tMr9S9CJAeBuJN2UP4ocdRvcbFv337Zu8fOXIkcZ2QZEidcX/48MHej5RXi7hCR3K9RiJI1JYn7xpJL6kzbjIMFGTxdoQfMtPOq9XWdd1O0JicnOyYXkj8pM64idtIG3a9Xk/FEri9DruGthv37t0DgI3KFd8A09ukzrhJsIcskvf48WOYmJiI/L4mpHUaKUu9Xofp6WkQBCHUYoBIyggdZ08It3cS47JM8cCuhU2GccgSSEAlviC9T+qMW1EUO9lAkiTu93wj/pCKU5Ikq1QqOZI6JEmyarVa6l9ogPDTZ1ldSPJFOo5pmrBjxw4AAKhUKnD79u0ua4QkTer63EgyrKys2PthXiqH9B5o3JuE9+/f2/u8L39Hehs07k0C/e4pdjEIJJtgn3uT0NfX5ziWZTlQTjrSeyS2WAOSLrAO33ygW44gGQWNG0EyCho3gmQUNG4EySho3AiSUdC4ESSjoHEjSEb5DyPAzltUxao3AAAAAElFTkSuQmCC;" vertex="1" parent="WIyWlLk6GJQsqaUBKTNV-1">
          <mxGeometry x="149.20000000000002" y="259.94" width="191.61" height="52.75" as="geometry" />
        </mxCell>
        <mxCell id="seuhetFpFGsYk8d8X-mT-81" value="" style="rounded=1;whiteSpace=wrap;html=1;absoluteArcSize=1;arcSize=14;strokeWidth=2;" vertex="1" parent="WIyWlLk6GJQsqaUBKTNV-1">
          <mxGeometry x="117" y="374.75" width="270" height="63.12" as="geometry" />
        </mxCell>
        <mxCell id="seuhetFpFGsYk8d8X-mT-82" value="" style="strokeWidth=2;html=1;shape=mxgraph.flowchart.annotation_2;align=left;labelPosition=right;pointerEvents=1;" vertex="1" parent="WIyWlLk6GJQsqaUBKTNV-1">
          <mxGeometry x="385.88" y="380.75" width="26.37" height="50" as="geometry" />
        </mxCell>
        <mxCell id="seuhetFpFGsYk8d8X-mT-83" value="&lt;div style=&quot;border-color: var(--border-color);&quot;&gt;&lt;b&gt;Объем бурового раствора&lt;/b&gt;&lt;br&gt;&lt;/div&gt;" style="text;whiteSpace=wrap;html=1;align=left;" vertex="1" parent="WIyWlLk6GJQsqaUBKTNV-1">
          <mxGeometry x="430" y="351" width="276.86" height="34.06" as="geometry" />
        </mxCell>
        <mxCell id="seuhetFpFGsYk8d8X-mT-84" value="&lt;font style=&quot;&quot;&gt;&lt;span style=&quot;border-color: var(--border-color); color: rgb(0, 0, 0); font-family: Helvetica; font-style: normal; font-variant-ligatures: normal; font-variant-caps: normal; font-weight: 400; letter-spacing: normal; orphans: 2; text-indent: 0px; text-transform: none; widows: 2; word-spacing: 0px; -webkit-text-stroke-width: 0px; background-color: initial; text-decoration-thickness: initial; text-decoration-style: initial; text-decoration-color: initial;&quot;&gt;&lt;span style=&quot;font-size: 10px;&quot;&gt;V&lt;sub&gt;исх&amp;nbsp;&lt;/sub&gt;&lt;/span&gt;-&amp;nbsp;&lt;/span&gt;&lt;/font&gt;объем раствора в обсаженной части скважины, м&lt;sup&gt;3&lt;/sup&gt;" style="text;whiteSpace=wrap;html=1;align=left;" vertex="1" parent="WIyWlLk6GJQsqaUBKTNV-1">
          <mxGeometry x="408.43" y="380.75" width="320" height="34.94" as="geometry" />
        </mxCell>
        <mxCell id="seuhetFpFGsYk8d8X-mT-86" value="" style="shape=image;verticalLabelPosition=bottom;labelBackgroundColor=default;verticalAlign=top;aspect=fixed;imageAspect=0;image=data:image/png,iVBORw0KGgoAAAANSUhEUgAAAZgAAABQCAYAAAAk92M4AAAP3ElEQVR4nO3dT2zT5v8H8HfRV5omtVTCmUTJqWFLbwiowgGmjTVFagWHHca6IUg3qR3aJo0qLRI9replCJIC0kCCIm3qJAKDw2jagujC+DOBhNSU7TI1HeHUmEMj0dk77LLnd+D3eM6ftmliJ2n8fkk9EGPHyTvxJ34eP4/rhBACREREFttQ6R0gIqLaxAJDRES2YIEhIiJbsMAQEZEtWGCIiMgWLDBERGQLFhgiIrIFCwwREdmCBYaIiGzBAkNERLZggSEiIluwwBARkS1YYIiIyBYsMEREZAsWGCIisgULDBER2YIFhoiIbMECQ0REtmCBISIiW6y5wMzOzsLlcqGurq7gv4mJibzb6u7uXnXd9vZ26Lpe8gt1ImZVmyqRq6ZpZX6VBLzK+o033lhT1tFoNO+2PvnkE2zYsKG8WYsSRCIRoSiKAJDxpyiKiEQiQtO0VbeRSCSE3+/P2UZvb69IJBKl7B6ZMKvaxFyd4+rVq8LlcuXN+sqVKwVn3d7enrONnp4eMTc3Z/k+l1RghBAiGo3m7Gw0Gi16G4qiiMnJyVJ3i/JgVrWJuTpHNBoVdXV1GVmPj48XvQ1FUcTExIRNeyvE/0o9A3K73VAUBel0GgCgKArcbveatjE3N2esOz09jR07dpS6W5QHs6pNzNU5ZNaLi4sAiss6kUgY6965cwc7d+60fD+lkjv5FxYWjA82ADQ2NmLz5s0Fr6+qKi5cuMAPdhkwq9rEXJ3Dqqw3bdpke3EBgJLPYLI1NzejoaGh4P9/4sQJJJNJRKNRfrDLjFnVJubqHGvNenBwEMlkEjdv3rS9uAAWnMHIU2vJ7Xajvr6+oHXD4TDGxsYQCARw4MCBUneFVsGsahNzdQ7ZvCVt2bKl4KxHRkYwNjaGw4cPly3rkgvM77//XtR6s7Oz+Oabb+D3+3H+/PlSd4MKwKzsoaoqtm7dCpfLhdnZ2bI/P3MtL1VV8eabb8LlciEej5f1uUvNuq2tDefPn0ddXZ3Fe5af5QMtt23btur/UVUVH3zwARobG/HDDz8UXIHJWsyqNjFX5yg064MHD2Ljxo0YGxtbU5NaqUrqg9F1HQsLCxmPtbS0rLqeuc23qamplF2gAjGr2sRcnUNmLYQwHmtpaVn1bMTc77Jlyxa7dzND2aeKkW2+oVCIbb5VjlnVJubqHLLf5dSpUxXJuqQCo2kanj9/bvx7tWuyzW2+R48eLeWpaY2YVW1irs5RbNZtbW04evRo2fpdzEoqMC9evMDS0pLx75WuyWabb2Uxq9rEXJ1jrVlXqt/FrGxNZCdOnMDS0hJu3LhRc22+8iqitUxIt5a/ck8iWctZORlzdY7BwUG8fPkS169fL3u/i1lJnfzZo0qXG/RjbvPlQK7KYFa1ibk6R6FZm/tdKp11SQUme4BXPhMTExgYGEAgEEB/f38pT1e1mpqa8OzZs0rvxoqYVW1irs6RPcgyH5n14cOH0d/fX5F+FzNLm8iyRxCrqopjx47B4/Hg5MmTVj4VlYhZ1Sbm6hzZo/hVVUVfXx+am5tx8uTJihcXoMQzmOxRpeZBP7qu48iRI1haWsL09DTbfCuMWdUm5uocq2UdCATw8uVL3Llzp6L9LmZFn8HkG+BldvHiRcRiMQwODla8HdDpmNXareXCjS1btiCZTCKdTmPnzp0FrWPFtDLM1Tpy+pdC83727BnS6TRaW1sLzruUaWXyDbI0u3TpEmKxGE6cOFFVWVvaRCZHELPNt/oxq9rEXJ1DjuKvtn6XDMXeqSyVSgmPx5NxF7x4PG487vF4RCqVsu7WaFQ0ZmUv+T7K97Xcz8tcyyuVSomtW7cKRVHEzMxMWZ/TnPXMzIzxuMfjEQsLC2XZl7Ww9H4wbPNdP5hVbWKuzlGt/S5mRTeR5RtVevPmTcRiMXz//fdV1Q5ot2ofaMmsahNzdY58WY+PjyMWi+G7774ry83DilF0gcke9JNMJhEOh3njoirErGoTc3WO5bIu583DimFpE1mlblx0+fJleL1evPPOO2V/bmB9DLTMxptM1Sbm6hwy66rq1M9S9BlM9ghiRVFw+vRpWyfQe/HiBc6cOYM9e/bA5XIZTUgPHz6sWHFZDyqRFdmPuTpH9ih+RVFw6tSpik1iWaiiC0z2oB+723zD4TCampoQDAbx6NEjpNNpeL1ejIyM8BfbKsqdFZUHc3WO7Kzt7HfRdR379u2Dy+VCJBJZduxNISxpIrO7zbe/vx8PHz7E5OQkdu7cuewU1bQ6ts/XJubqHEeOHClb1qWeDRdVYMwjiO1u8w2HwwCAu3fv8tS/COXMisqHuTqHeRR/Ofpd6uvrMT09bcm2iiow8s5qHo/H1hsXqaqKubk5jIyMsLgUqVxZUXkxV+cwZ13Jm4cVo6SpYs6dO2frQK5QKITPP/+cXx4L2J0VVQZzdY6zZ89W5WDKFVV6KoHlpFIpMTQ0JIQQQlVVEQwGhaIoxlQJHR0dIpFI5KwXj8fF5cuXRVdXl/jwww+FpmkikUiI3t5eY12fz8cpNCykaZoIBoMCgPD7/ULTtIzlhUylki/jYDBobEvTNHHt2jXR0dGRk5/5+UOhkH0v1MHy5dPb25uTtaqq4vLly6Kjo0MAEOPj43m3F4/HhcvlypniJB6Pi+HhYeH1eoXf7xd//fWXsSwajQqXyyV8Pl/ZpmhxElVVxdTUlBgYGBC7d+8WwWBQ/PvvvyVts2oLTCgUEtFoVEQiEaEoivD5fEZB0TRNBAKBnANWIBAwPvwARCAQEJOTk2JoaEhomiY0TRNDQ0PLHghp7VKplOjq6hLDw8MZ82GZRaPRFd/z0dFR4fV6xcjIiLE8Ho8LRVFEKBTKmXNLZiuZc2eu1hsdHRWKohjfIyFefT+zcwiFQsLr9WbklK/AaJom2tvbjbxkEenu7s5Y1/xjIXsurtOnT9v8qp2lu7u7oOzWqioLjKZpor+/3ygG5g+xJA9A2cs0TRN+v18AEF1dXWJ0dDRjeaUmJqxFmqaJgYEBkUqljDzyTbAoD0b5zi7y/VAQQuQ9IzGfqcjniUajRhHy+XwiGAza82IdSp61ZJ8xRKNRUVdXl5Oppmmit7fXKCD5Mo9Go2L37t3LLu/u7s55zlAoJEKhkIhEIqKlpcWSgx/l6u7uFnV1dZZNnmnpSH6rzM/P4/Hjx3j06NGqV8gsLCxA13Wjn0Z2iAHAa6+9hp6enrLssxPV19fj9OnTAIArV64gnU5j//79GX0Cuq7j1q1bUBQFbW1tGeuHw2FMTk5ieno6Y/yGrutYXFyEz+fDoUOHMp5vYGAAP/30E5LJJCYnJ6FpmjEd/ZMnT+x8uY4TDocxMjKC8fHxjDEXuq7j3Llz2LRpE957772MdTRNg9vtRktLC37++eecbaqqipmZGbz++usAAK/Xm7FcXjHV2NhoDEdQVRWJRAKhUAgNDQ346KOPrH6phMyr1fbs2WNN317pNc968hfvSmcZ8hdzdpOIbI5ZbqpyuR7PYKxjPmuMRqMZy5bLY7kz0ELIJjH2pdnH/P0y94MkEgnh8/mEoig5WQshjDNKcxOauR1/aGhIPHjwYNkp5mXfjFxvcnJSdHV1VeVU9LVGvvdW3obA0huOWUWOWt2/f/+yI5Pv3r2bMfmbJKfP+OKLL/JWYDlp3Pbt2/HWW29ZuNfONT8/j6dPn8Lj8aC1tTVj2fXr1wEAb7/9dkYeZ8+eBQD09fWt+fkOHjwIANi4ceO6umRzPTl79izS6TR6enrw999/Y2pqCp2dnfB6vdi+fTseP36cd7Df3Nwc2trajJthmU1MTKC1tRVLS0tIJpM5nwng1fd6cXERY2Nj2LBhA0ZGRjA6Orr+rp5ah3755RfLj41VV2DMA8jkgSTf/7l16xYAoLOz02geW6k5Ri6XBzbzelQaWeyzDxgPHjzAP//8AyAzS1VV8euvv5b8QX7+/Dk0TSt+xykvmQ8AfPzxx3j33XcxNjaGTz/9FJqm4dKlS3lz03Udc3Nz2Lx5M9xuNxRFMZqwZdPYgQMHcOPGDQghsG3btowipOs6bt++DUVRMDMzg1AohFgshnv37pXttTuVPHYKIdDR0WHZsbHq+mBkH4qiKHC73Xn/j/zFnF1I5OPLHbju3buHWCwGj8eT0bZPxTMX++wiMj8/j8XFxZwzm+x7W6yFqqq4f/8+/H4/YrGYcdAi68h8FEXJ6R9biex/aWpqwosXLzKWXbp0CZ999pnxA1JRlJz+m+zvr9frxe3bt3Hu3Dns3buXZ6s2yj6mWjVTQNWdwTQ0NKC5uTmjk89M13UcP34c6XQag4ODGR9++Us639mJPHtRFAU3btzg4DSL5Gse03XduIXC06dP0dzcnPfgsNwZyPz8PI4fP55zkzVd19HX14dDhw6hs7MTwH9NcFQ+uq6jv7/fuLhCmpmZMT4DmzdvRmNjI54/f45r166htbUVTU1NK/4IlM3XnZ2daGhoQH19PY4dO4a7d+/yLMZmdjSPAVVYYOrr6+F2u7G0tJTzKwgALl68iFgshkAgkPMBl303LS0tGY/ruo4vv/wSsVgM3377LWectVC+5rFwOIyenh48efLEOGBomoapqSkA/x18kskkjhw5gvn5eQCvcrp69Sq++uorBINB1NfXo7+/H7t27cLs7Cy+/vpr7Nq1Czt27EBbW1tOE8yZM2cq9j7UEplPOp3Gvn37jNwAYGpqCm1tbfjtt98wNDRkPK7rOu7fv28UGPlDMZlM4o8//jDOMmUfi9vtxp9//okff/zR2IZsOjNfWbZ37174/X709fUhlUrZ/dIdSx47ZfPYxMQEHjx4UPqGLblUwGJyrEr24Eo5BiLfWAfzYDzzCHDzVS+RSKSsr8MJ5BVdwWBQxONxMTAwYGQml0UiETE8PJxxtZ+8yij7z3xlmPnqNGSNhzLnPTw8LAYGBjjA0kLL5WP+fiUSCbF161bh8/lEb29vzpil9vb2nCuS5GDKK1euiKmpKeNxOZAy35VlcswNB1faQ773MqtIJCJGR0dLHsUvRJUOtBTiVWGQ003g/y9Z7u3tzTs9jBD/XQ4rL0E2r2cuOGQtOdNCvvdZFph8U4oI8d8I8ZVykge6tS6j0sls5Xcp+/snC4yiKDkDmoV4lX/2QMqhoSGhKErGrA1C/FdEsi9rFoKj+O2WSqXErl27jB94ExMTlm27TogS7iZTRbq7uzE2NoZQKJTTdEZEROVXdX0wxTBfmZLv8mQiIiq/migwq12eTERE5VcTBWaly5OJiKgy1n2BmZ2dxYULFyq9G0RElGXddvLruo73338fsVgsZ1k0GuXobiKiClu3BYaIiKrbum8iIyKi6sQCQ0REtmCBISIiW7DAEBGRLVhgiIjIFiwwRERkCxYYIiKyBQsMERHZggWGiIhswQJDRES2+D/EPryDyqxdxgAAAABJRU5ErkJggg==;" vertex="1" parent="WIyWlLk6GJQsqaUBKTNV-1">
          <mxGeometry x="123.68" y="381.31" width="255" height="50" as="geometry" />
        </mxCell>
        <mxCell id="seuhetFpFGsYk8d8X-mT-88" value="&lt;font style=&quot;&quot;&gt;&lt;span style=&quot;border-color: var(--border-color); color: rgb(0, 0, 0); font-family: Helvetica; font-style: normal; font-variant-ligatures: normal; font-variant-caps: normal; font-weight: 400; letter-spacing: normal; orphans: 2; text-indent: 0px; text-transform: none; widows: 2; word-spacing: 0px; -webkit-text-stroke-width: 0px; background-color: initial; text-decoration-thickness: initial; text-decoration-style: initial; text-decoration-color: initial;&quot;&gt;&lt;span style=&quot;font-size: 10px;&quot;&gt;V&lt;sub&gt;емк&amp;nbsp;&lt;/sub&gt;&lt;/span&gt;-&amp;nbsp;&lt;/span&gt;&lt;/font&gt;объем рабочих емкостей насосов, м&lt;sup&gt;3&lt;/sup&gt;" style="text;whiteSpace=wrap;html=1;align=left;" vertex="1" parent="WIyWlLk6GJQsqaUBKTNV-1">
          <mxGeometry x="408.43" y="402.93" width="320" height="34.94" as="geometry" />
        </mxCell>
        <mxCell id="seuhetFpFGsYk8d8X-mT-89" value="" style="rounded=1;whiteSpace=wrap;html=1;absoluteArcSize=1;arcSize=14;strokeWidth=2;" vertex="1" parent="WIyWlLk6GJQsqaUBKTNV-1">
          <mxGeometry x="117" y="473.75" width="270" height="63.12" as="geometry" />
        </mxCell>
        <mxCell id="seuhetFpFGsYk8d8X-mT-90" value="" style="strokeWidth=2;html=1;shape=mxgraph.flowchart.annotation_2;align=left;labelPosition=right;pointerEvents=1;" vertex="1" parent="WIyWlLk6GJQsqaUBKTNV-1">
          <mxGeometry x="385.88" y="479.75" width="26.37" height="50" as="geometry" />
        </mxCell>
        <mxCell id="seuhetFpFGsYk8d8X-mT-91" value="&lt;div style=&quot;border-color: var(--border-color);&quot;&gt;&lt;b&gt;Потребное количество глинопорошка&amp;nbsp;&lt;/b&gt;&lt;br&gt;&lt;/div&gt;" style="text;whiteSpace=wrap;html=1;align=left;" vertex="1" parent="WIyWlLk6GJQsqaUBKTNV-1">
          <mxGeometry x="430" y="450" width="276.86" height="34.06" as="geometry" />
        </mxCell>
        <mxCell id="seuhetFpFGsYk8d8X-mT-92" value="&lt;font style=&quot;font-size: 12px;&quot;&gt;&lt;font style=&quot;font-size: 12px;&quot;&gt;&lt;span style=&quot;border-color: var(--border-color); color: rgb(0, 0, 0); font-family: Helvetica; font-style: normal; font-variant-ligatures: normal; font-variant-caps: normal; font-weight: 400; letter-spacing: normal; orphans: 2; text-indent: 0px; text-transform: none; widows: 2; word-spacing: 0px; -webkit-text-stroke-width: 0px; background-color: initial; text-decoration-thickness: initial; text-decoration-style: initial; text-decoration-color: initial;&quot;&gt;n&lt;sub style=&quot;&quot;&gt;г/п&amp;nbsp;&lt;/sub&gt;-&amp;nbsp;&lt;/span&gt;&lt;/font&gt;нормы расхода глинопорошка для&lt;br/&gt;приготовления 1 м&lt;sup style=&quot;text-indent: 35.45pt; background-color: initial;&quot;&gt;3&lt;/sup&gt;&lt;span style=&quot;text-indent: 35.45pt; background-color: initial;&quot;&gt;&amp;nbsp;бурового раствора, /м&lt;/span&gt;&lt;/font&gt;&lt;p style=&quot;margin-left:0cm;mso-add-space:auto;text-indent:&lt;br/&gt;35.45pt;line-height:150%&quot; class=&quot;MsoListParagraph&quot;&gt;&lt;span style=&quot;font-size:14.0pt;line-height:150%;font-family:&amp;quot;Times New Roman&amp;quot;,serif&quot;&gt;&lt;/span&gt;&lt;/p&gt;" style="text;whiteSpace=wrap;html=1;align=left;" vertex="1" parent="WIyWlLk6GJQsqaUBKTNV-1">
          <mxGeometry x="408.43" y="481.75" width="320" height="40.25" as="geometry" />
        </mxCell>
        <mxCell id="seuhetFpFGsYk8d8X-mT-95" value="" style="shape=image;verticalLabelPosition=bottom;labelBackgroundColor=default;verticalAlign=top;aspect=fixed;imageAspect=0;image=data:image/png,iVBORw0KGgoAAAANSUhEUgAAASQAAABBCAYAAAB4t9mxAAAMwUlEQVR4nO2dz4sb9RvH3/3yvapMx6OIZOJRBnRiPaQHhSZh9VhNIqUUKuqs4sGuW0kKvSxbZ1taKLa7WzbgbZJuwSJNTHbBBbOX2lQSEDy0M4h4TJzWf2C+h/3OmJkkk/mVZLJ9XjCwM5n55Nn55POez4/neeaIrus6CIIgIsB/Zm0AQRCEAQkSQRCRgQSJIIjIQIJEEERkIEEiCCIykCARBBEZSJAIgogMJEgEQUQGEiSCICIDCRJBEJGBBIkgiMhAgkQQRGQgQSIIIjKQIBEEERlIkAiCiAwkSARBRAYSJIIgIkMgQVJVFZubm8hkMojH4zhy5Ii5JRIJLC4uolarhWUrQcwt+/v7lvbhtGUymVDKm0eO+Elhq6oqrly5gvX1dQAAx3FIpVJ45ZVXAAB//PEHdnZ2oCiK+fn169exsLAQoukEMV/0ej3cv38fFy9eRKvVGvhckiSk02nwPO+qPFVVcefOHZw/f948xjAMLl26hJMnT4Jl2dBsnxq6RzY2NnQAOgCd4zi9Wq2OPLfZbOqCIJjnZ7NZvdvtev1KgjhUdLtdneM4s10A0AVB8F1eoVAwy2m32yFaOn08CZIoipYb6EZcut2ur+sI4jAjy7JFkDiO812WIUiSJIVo4WxwLUj9osJxnCdR6Xa7lp4SiRJB6DrDMBZRUhTFVzlG2zoMbcrVpHa5XDbniwDg+vXrnsanLMvi2rVr5n6r1cJnn33m+nqCOIx8/fXXlv1SqeS5jE6ng1arBVEU53POyM44xep2uxYlD9K1TKfTlieC0/wTQRx2ut2upT0wDOO5l2OMXJrN5oSsnC5je0hXr16Fpmnm/ldffeVb/L744gvHfYJ4lmBZFqIomvuapmF3d9f19b1eD+VyGYIgIJlMTsLEqTNWkPqHagDw1ltv+f6yY8eOWfYVRcH+/r7v8ghi3vnkk08s+xcuXHB97Z07d6BpGs6dOxe2WTPDUZBqtZqldwTAtY/EMFiWRTqdthz78ccffZdHjKfT6aBYLOLo0aNYW1szj/d6PRSLRdOhNR6Po1gsotfrzdDa6dDr9ZBIJFAulz1f2+l0kMlkQrtPPM9b2oSiKK6diS9fvgyGYXDixIlQbIkETuM5SZIsY9x0Oh14jNi/WoeA/hdRxT5XFsbmZY6g2+3qsixbVjbRtyxcrVYHVngOc33YqVar5v8ry7Kn64z7FuYSe789bttZs9nUAeiFQiE0O6LAf53E6qeffgood4MY3twGwzxW55033ngj9DKfe+451+caqzUcxw3c33K5jHw+D0EQ8P777wMAbt26ZXrVt1otlMtl5HK5kCyPHgsLC5BlGfl8Hvl8HgDG/r/GfQMAURSxvLwcqj0cx5l10Gg00Ol0HEcj3377LQDg7NmzodkRCZzUyv6kD6OHZO91jTGBCEh/T0gQBJ3juKG9Lbuf2LNAv3OiU0+p/7yNjY2J2wJAF0Vx5LmKooTWHqPG1AXJ3j2dpCCJouipS34Y6a9DJ4dUe4OYJLIsOza4aTJOlNyKVlDs7jVwcHQ0Hup+3Wba7bbebDZ1WZZ1SZJ0SZL0QqEQieHf1AXJGPsO+/Hbj7vZRtlkVPC9e/dCmcOZV7f8/jp0+h/s9TKqDC+bk03DHkxh1r8XRonOtMTIwD56GFVfDMP48gesVqsDMXTG5jX6YlJEbsjWbrctN20UiqLo2Wx2pE32p3B/Axj3f/TbKIpiJCrKL2EIkq7/e7+Nz0dNsne7XfP+DUNRFEtjclvfdhsFQfAdajEMu/hMW4x0/d+hmLExDDPSTq8PSOM6hmH0dDptboVCQd/Y2IjMb9xxUjsWizl9HAocx1n2eZ5HNpvF6uqq43WxWAw3btwYGYJy9+5dnD592txfWFiAIAieJ9GXlpY8u+QXi0U8fPjQ0zXjkCQpkMtFUGKxGE6fPo1KpeJ4HsuyWF5eHrkgsru7i2w2a+67rW87586dC/X3aUxq9090A4Asy1Ob4I/FYhBF0fT90zRtYIHhu+++A+BtMrvX62FxcRGSJIU6GT8JHAXJ3gB++eWXwF/49OlTy34qlRo454UXXnBVFsuyeP311weO93o97OzsDPiZ+In18fOjf/jwIRqNhufrnPDiMDcpnn/+edfnvvPOO0OPb21tYWtry3LMbX3389JLL3m+Zhy5XA4///yzKQiiKE59tfHDDz+0OCNfuHDBtEFVVTQaDc9xa6VSKfSVwUnh6Bhpd7jSNA2qqgb6QnvP4b333gtU3rCbvLu7O9Nl63q9Dv1gOBzaNm+hAcPqRVVVaJo2056eE/Yg8vX1dV/Ok0FIJpMDjpJGNMOVK1cAHIiWF7a3t/Hll1+GZ+QEcRSkWCw24FkdpJfU6/UsPQeO4yaSRfLu3buBhY4IH/twLUr0+xnJsgxZlgEcDOGmLUpnzpyx7K+srPiOW+t0OkgkEmBZFrVaDYlEwpJmenNz05Nt5XIZmUzG9PpfW1vD0aNHzfKCpqweG8tmHyoYY1g/2AMHgwTqjkJVVezs7FC63Ahy+fJlfPDBB7M2YwC7GOVyOeRyuZmJUi6Xs8ytNhoNlEolX3FrjUYDPM9jcXERp06dwrVr16DrOhRFAcdx+PTTT5FIJMaGwnQ6HeRyOeTzebNTsbi4iFu3buHNN98EcOBU++677wYSpbGClEwmLU+1RqPhOyC2X8wEQRgILAyDWQ/XiOF0Oh0AwWIhJ8EwMTKYpSjZH9bnz5/3Fbf266+/4s8//8T6+jp++OEHs3dlLAoZ3vxXr151LIfneZTLZTM7wfb2Nniex+PHj1Gv102BA4BTp055srEfVwnabty4AYZhzP2VlRXPX1Sr1UxlZRhmYGIzLLa2tiYidEQwbt++PZEecRCcxMhgVqJ08uRJS5szbPG6MPPkyROsrq6CYZiBoR7LsmZbXl1ddTU/bIR+pVIpSzuLxWJmh0PTNN+9JFeCxLIs9vb2zBvUaDRQLBZdf0mn0zFVk2EY7O3tTeRJGfVJ03ki7Kj/SqUSqah0N2JkMAtRYll2wKalpSXf5RnDKjv93+ElF9OwldFkMmn2kn777TePFh7g+r1sPM9jb28PgiAAOFBUN6K0v7+Pt99+G5qmTVSMgGhPms6Kx48fm3/bXS6c+P3330OzodPpgGGYqfi1uaFWq7kWI4NcLodmswmGYZDP56fyvsF+AUqn0xO7f0ab9vL7GEU8Hg90vacXRfI8jwcPHkCSJDAMg9XVVcTjcZTLZUt3T1VV1Go1ZDIZHD9+HJqmQRRFPHr0aKK9l62trUhOms6Kzc1NM4IcOFjGHjb/p6rqwDB8ZWUlsIuHwe3bt/HRRx+FUlYYHDt2DIIgeHZ6TCaT2NvbQzqdHkg2OAlisZj5gLWvvLnFTeaJKOXidnSMHMXy8jLOnj2LUqmEb775xuLZ2g/DMBBFEUtLSxN/OtJw7V/W1tYsLw800DQNx48fBwDTa3fUG04bjQY4jkM6nUa9Xg9kT6VSwc7OTqAywoRlWTx48MDXtTzPB74fXvj888/RarV8L9S89tprAODKUffll1/29R1hluX7VdpGiMCjR4/MLp+dVCqFmzdvTqWrXiqVaLj2f5aXl8c6WhqOi+POC9r4arVapIZr80YymbQMu71y4sQJc+531DCz0WiElnnSsHXUnNU4fAuSAcuyqNfrQ0WpUqn4Gmv7GctWKpWx8T1+JmrDGrYcBv755x/P19y7d2+s74yf+v7rr788X/MswrKs+bqlixcvDrQBo31eunTJMnQzHCBHTeBvb28PHNvf34eiKCgUCpYH0LiyLIQZqWtPTwt4f7WLPfrbTSRyu90em1SsP9qfYZiRuWQURbEkK5v3aP+wsEf7i6LoKtp+XP27re9hb0AOM9r/sGP8pvvvW7PZ1BmGGZqbysjNZM84MCoThlHWsJxbo8oaRuiZuIbla3b7plq7mPVvTjmljRQKwxiWf2lUuU55f+Y1H1IY+L0v1WpVz2azIz93qpf+coelrDG2w5g1cVJIkmQR/3Q6PTK1inHP7fVrHC8UCrooimZb5zhOlyRpaDsfVdYwJpIasNvtWp6mXkSJIIjo4kVc/BB4DmkYLMuiXC6j2WyawbmtVguvvvrq1AMVCYKYHyYiSAbJZBL1eh3tdtuMgcnn84jH49jc3KSXRBIEYWGigmTA8zxu3ryJv//+G81mEx9//DG+//57nDlzZqQfDEEQzx5HdF3XZ20EQRDRR1VVpFIpM7L//v37oXt5T6WHRBDEfLO2tmZ5maWiKHjxxRctr2cPA+ohEQQRGaiHRBBEZCBBIggiMpAgEQQRGUiQCIKIDCRIBEFEBhIkgiAiAwkSQRCRgQSJIIjIQIJEEERk+B9PGZ8BePRbpQAAAABJRU5ErkJggg==;" vertex="1" parent="WIyWlLk6GJQsqaUBKTNV-1">
          <mxGeometry x="136.13" y="479.5" width="225.74" height="50.25" as="geometry" />
        </mxCell>
        <mxCell id="seuhetFpFGsYk8d8X-mT-96" value="" style="rounded=1;whiteSpace=wrap;html=1;absoluteArcSize=1;arcSize=14;strokeWidth=2;" vertex="1" parent="WIyWlLk6GJQsqaUBKTNV-1">
          <mxGeometry x="193" y="573.75" width="130" height="63.12" as="geometry" />
        </mxCell>
        <mxCell id="seuhetFpFGsYk8d8X-mT-97" value="" style="strokeWidth=2;html=1;shape=mxgraph.flowchart.annotation_2;align=left;labelPosition=right;pointerEvents=1;" vertex="1" parent="WIyWlLk6GJQsqaUBKTNV-1">
          <mxGeometry x="323" y="583.44" width="36.37" height="40.31" as="geometry" />
        </mxCell>
        <mxCell id="seuhetFpFGsYk8d8X-mT-98" value="&lt;div style=&quot;border-color: var(--border-color);&quot;&gt;&lt;b&gt;Коэффициент учитывающий степень повышения плотности&lt;/b&gt;&lt;br&gt;&lt;/div&gt;" style="text;whiteSpace=wrap;html=1;align=left;" vertex="1" parent="WIyWlLk6GJQsqaUBKTNV-1">
          <mxGeometry x="386.88" y="546" width="276.86" height="34.06" as="geometry" />
        </mxCell>
        <mxCell id="seuhetFpFGsYk8d8X-mT-99" value="&lt;font style=&quot;font-size: 12px;&quot;&gt;&lt;font style=&quot;font-size: 12px;&quot;&gt;&lt;span style=&quot;border-color: var(--border-color); color: rgb(0, 0, 0); font-family: Helvetica; font-style: normal; font-variant-ligatures: normal; font-variant-caps: normal; font-weight: 400; letter-spacing: normal; orphans: 2; text-indent: 0px; text-transform: none; widows: 2; word-spacing: 0px; -webkit-text-stroke-width: 0px; background-color: initial; text-decoration-thickness: initial; text-decoration-style: initial; text-decoration-color: initial;&quot;&gt;p&lt;sub&gt;y&amp;nbsp;&lt;/sub&gt;-&amp;nbsp;&lt;/span&gt;&lt;/font&gt;&lt;/font&gt;плотность утяжелителя, г/см&lt;sup&gt;3&lt;/sup&gt;&lt;p style=&quot;margin-left:0cm;mso-add-space:auto;text-indent:&lt;br/&gt;35.45pt;line-height:150%&quot; class=&quot;MsoListParagraph&quot;&gt;&lt;span style=&quot;font-size:14.0pt;line-height:150%;font-family:&amp;quot;Times New Roman&amp;quot;,serif&quot;&gt;&lt;/span&gt;&lt;/p&gt;" style="text;whiteSpace=wrap;html=1;align=left;" vertex="1" parent="WIyWlLk6GJQsqaUBKTNV-1">
          <mxGeometry x="361.87" y="573.75" width="201.57" height="28.25" as="geometry" />
        </mxCell>
        <mxCell id="seuhetFpFGsYk8d8X-mT-101" value="" style="shape=image;verticalLabelPosition=bottom;labelBackgroundColor=default;verticalAlign=top;aspect=fixed;imageAspect=0;image=data:image/png,iVBORw0KGgoAAAANSUhEUgAAAMEAAABtCAYAAAAYnAUJAAAKbklEQVR4nO3dTUwTzR8H8G//+d8Ee1gOIBdoAo0JkRbSJ9EQJFQT3g5ekIRE8CCQ6AXbePAkHo0FOQCJyEWDvMhN2kKiNIpEjKQv4QZNwEspJvSAu2fnOeDu0wqFtmy73c7vk3CQrtPJ0G9nd3Zm1sAYYyCEY//TugKEaI1CQLhHISDcoxAQ7lEICPcoBIR7FALCPQoB4R6FgHCPQkC4RyEg3KMQEO5RCAj3KASEexQCwj0KAeEehYBwj0JAuEchINyjEBDuUQgI9ygEhHsUgjOEw2H09/ejpKQEBoMBBoMBZrMZc3NzWldNMwXXJoycaHt7m/X19TEASX9cLpfW1cypQm0T6glOEAwGcfXqVYRCIXg8HjDGwBjD7OwsBEFQjpuYmEA0GtWwprlT0G2ibQbzTyAQYIIgMJPJxPb29o697nK5Er75FhcXNahlbhV6m1BPEEeSJDx69AixWAz3799HWVnZsWO6u7thMpk0qJ02eGgTCkGcly9fYmVlBSaTCd3d3WceLwgCysvLc1AzwO12Kxehmf643e603zef20QtFII/otEoJiYmAAANDQ0nfuP9zWg0orS0NNtV0wwvbfJ/rSuQL/x+P3Z2dgAAnZ2dSY/b39/H4eEhgNQ/GGro6OgAy/EG4vneJmqhnuCPhYUFAIDJZEJ9fX3S4yKRCGKxGARBwODgYK6qpwle2oRCgKNuf21tDcDp32SSJGF0dBQA8PjxY1it1pzVMde4ahOth6fyweLiYkrDe/JxdrudiaKYwxrmHk9tQiFgjPX09DAATBAEFggETjxmb2+PmUympGPlhYanNuH+dCi+209GkiTcuXMHgiBgbW1Ndxd+6eKtTbgPQfwISCwWw8DAAMLhMICjP/Tc3BwqKipQW1sLn8+n6z92qnhrE+5DED8Csrq6isrKSlRXV8NgMKCiogI+nw/r6+sYHh5GUVGRxrXNDe7aROvzMS3Jc2IAsJ6eHtXL93g8rKWlJWFmpSiKzG63Z+X91JCtNhFFkQ0NDTFBENjQ0FDCaz09PccurEVRZA6HQ6mLzWZTrjsCgQBraWlJqN+rV6+YIAgZXaBz3RP4fD7EYjEAp98MykRvby/a29uxvLyMpaUlSJKkvFZbW4u1tbW8nG2ZrTYZHh5Gc3MzLBaLcqoF/Hf90draqvQqwWAQFRUVEEUR6+vrYIzh8uXLmJmZgdvtRl1dHZaXl+HxeBAMBvH06VNcv34dBwcH+PjxY/q9U+bZ1jf5GxlZHN6T3+Pv0RNRFNnIyIjq73de2WoTURRZNBpVepn4nnFxcTFhBEo+Jv5bPhAIsOrq6oRRqtnZWSYIArPZbElHr1LFbU8QDocRCoUAIOFbSE1FRUVobW3F4eEh9vf3ld/Pzc2hqalJ9fc7r2y1SVFREUpLS+Hz+QAAzc3NymsLCwsJ841GR0dhsVgwPj6uHGO1WrG1tZVwI66jowMWiwUXL15EVVXVuerHbQjkbl8QhIQ/SrZFo1GIopiXd1az2SaSJGFpaQkWi0X50AaDQXg8HuWOtPzvVAIof8Hs7u5CFMVz1Y3LEMTPjmxvb8/qB9JsNiMWiyESiQAAvF4v+vr6svZ+mcp2m8i9jPwBlyRJmdotX3vIc5DMZnNK9ZUn7vn9/nPVjcsQzMzMYGdnJ+cTvqamplBXV5eXw4rZbhOfzwej0aisSZifn0dVVRWMRuOpk/OAowB5vd6E33m9XjidTlgsFmVIN1NchsDpdIIxhoODg6yflpSXl0MQBLx//x7V1dV5eRoEZL9NNjc3UVlZieLiYrx79w5tbW1YWlpCQ0MDPn/+jNXVVaWtRkdHldE0r9eLyclJNDY2Ynh4GL29vfB6vairq0NpaSnKy8sRiUSUUaJMcBmCXCotLYXRaITZbEZjY6PW1dFUKBSCw+FAW1sbiouLEYlE8O3bN1y6dAmNjY2wWq0YGxtDKBRCcXExSkpKsLe3h+fPnyu9p8fjwa9fv5SgdnZ2IhQKYXp6Gk6nM6N6GRjL8UoNzkSjUUxOTuLJkydaV4UkQSHIIkmSMD8/j66urry8DiBH6HRIZcPDw7hx4waCwSAFQCdojXEWhEIh+P1+3Lt3T+uqkBRk1BPs7+/D6XQqe1H+888/CAaDCa9NTU2pWlG9cDqdODg4oADoSNohmJqaQk1NDQDgx48fYIzh7du3ePbsGbxeL2pqavD69eszx34JyRvpTIKy2+1Jl9u5XC527do1BiCt5Xbxa1kz/dHbtn8kv6TUE0iShFu3biEUCuHDhw8n3kwxm834+vUrAH3uPUP4ldKF8YMHD7CysgKXy5XS3cR05qFrsakUIfHO7AncbjfevHkDu92OgYGBpMdtbW0B0OdelIRvp/YE8RsrDQ4Onjrevbm5CQAJU2XzjcFg0LoKREPJzjhODcGnT5+wsrICu91+6iIQeR44cDRhLF9vDtFpFzlJ0tOh+F7grEUOo6OjGa9L1WrLcUJkSUMgiiJ2d3fPXGUkXzMAZ2/cSkg+Sno6FL/ddjLhcBjT09Ow2WzY2NhQ5oung0aHiNYynkAXDAZx9+5d9PT0KKdC2VqwTkg2nRmCv7fhk+cG3bx5E2NjY/j9+7eyj4zZbIbb7aZzdKIrSUNgtVrR3t4OANjY2FC24SsrK8OXL1+wvr6ubIUBHN0f+PnzJ8LhMDo6OnJTe0JUcGpPMD4+DofDofy7uroas7Oz+P79u3IvwGw2K8+xvXDhAh4+fJjF6hKiPlpZRrhHK8sI9ygEhHsUAsI9CkEeC4fD6O/vR0lJibJ8NVWSJOHFixfKEliDwYD+/n5lqDtXZeiClit6yHHRaJSNjIwoD6fAGQ/PO8n29jaz2WxMEATm8XiU38krA1NZiadGGXpBIcgjoiiy27dvs/7+ftbV1ZVRCOQnSp70f057Te0y9IRCkKfiH5iRzgdOfvRqskctuVyuM9eBq1GGntA1QZ4qKipKe4Ve/IzeZFPam5ubIQgCdnZ2MDMzk5Uy9IZCUEDkLcpPW+JaVVUFi8UCAMeepaZWGXpDISgQ8Q/gjn/80d/ie5hQKJQw0qNGGXpEISgQ8Q/gPmtdx5UrVwAczRCWnyOmVhl6RCEoEPJsXiC9dd7yBglqlaFHFALCPQpBgVDj21jv3+iZohAQ7lEICoR8oap1GXpEIeAchYdCUDBSeQC2LP7cP/7/qVGGHlEICkR9fT1MJhOAoyfDJ7uLK0kSIpEIgON3hdUoQ48oBAWirKwMDQ0NAIDd3V2IonjicfLOgsDxzZPVKEOPKAQFRJ7wtrOzA7/ff+Ix8TsLnrRZmhpl6A2FoIA0NTXBbrcD+G8i3N98Ph9isVjS502oUYbuaD2XmyQnz+tPZz1BIBBggiCca0GMGmXoCYUgT8kfRPxZXTY0NMREUUzr/9psNra9vc0YS1wumcqHV40y9IJCkGfkVVvJflJdzbW9vc36+vqUIAmCwBwOR8pBUqsMPaAd6Aj36MKYcI9CQLhHISDcoxAQ7lEICPcoBIR7FALCPQoB4R6FgHCPQkC4RyEg3KMQEO5RCAj3KASEexQCwj0KAeHev4nyDwxNhcqAAAAAAElFTkSuQmCC;" vertex="1" parent="WIyWlLk6GJQsqaUBKTNV-1">
          <mxGeometry x="203.66" y="575.75" width="102.69" height="58" as="geometry" />
        </mxCell>
        <mxCell id="seuhetFpFGsYk8d8X-mT-102" value="&lt;font style=&quot;font-size: 12px;&quot;&gt;&lt;font style=&quot;font-size: 12px;&quot;&gt;&lt;span style=&quot;border-color: var(--border-color); color: rgb(0, 0, 0); font-family: Helvetica; font-style: normal; font-variant-ligatures: normal; font-variant-caps: normal; font-weight: 400; letter-spacing: normal; orphans: 2; text-indent: 0px; text-transform: none; widows: 2; word-spacing: 0px; -webkit-text-stroke-width: 0px; background-color: initial; text-decoration-thickness: initial; text-decoration-style: initial; text-decoration-color: initial;&quot;&gt;p&lt;sub&gt;исх&amp;nbsp;&lt;/sub&gt;-&amp;nbsp;&lt;/span&gt;&lt;/font&gt;&lt;/font&gt;плотность бурового раствора до обработки утяжелителем, г/см&lt;sup&gt;3&lt;/sup&gt;&lt;p style=&quot;margin-left:0cm;mso-add-space:auto;text-indent:&lt;br/&gt;35.45pt;line-height:150%&quot; class=&quot;MsoListParagraph&quot;&gt;&lt;span style=&quot;font-size:14.0pt;line-height:150%;font-family:&amp;quot;Times New Roman&amp;quot;,serif&quot;&gt;&lt;/span&gt;&lt;/p&gt;" style="text;whiteSpace=wrap;html=1;align=left;" vertex="1" parent="WIyWlLk6GJQsqaUBKTNV-1">
          <mxGeometry x="361.87" y="595.5" width="320" height="28.25" as="geometry" />
        </mxCell>
        <mxCell id="seuhetFpFGsYk8d8X-mT-107" value="" style="rounded=1;whiteSpace=wrap;html=1;absoluteArcSize=1;arcSize=14;strokeWidth=2;" vertex="1" parent="WIyWlLk6GJQsqaUBKTNV-1">
          <mxGeometry x="121.5" y="673.75" width="270" height="66.25" as="geometry" />
        </mxCell>
        <mxCell id="seuhetFpFGsYk8d8X-mT-108" value="" style="strokeWidth=2;html=1;shape=mxgraph.flowchart.annotation_2;align=left;labelPosition=right;pointerEvents=1;" vertex="1" parent="WIyWlLk6GJQsqaUBKTNV-1">
          <mxGeometry x="390.38" y="679.75" width="26.37" height="50" as="geometry" />
        </mxCell>
        <mxCell id="seuhetFpFGsYk8d8X-mT-109" value="&lt;div style=&quot;border-color: var(--border-color);&quot;&gt;&lt;b&gt;Количество утяжелителя&lt;/b&gt;&lt;br&gt;&lt;/div&gt;" style="text;whiteSpace=wrap;html=1;align=left;" vertex="1" parent="WIyWlLk6GJQsqaUBKTNV-1">
          <mxGeometry x="432.5" y="654" width="276.86" height="34.06" as="geometry" />
        </mxCell>
        <mxCell id="seuhetFpFGsYk8d8X-mT-110" value="&lt;font style=&quot;font-size: 12px;&quot;&gt;&lt;font style=&quot;font-size: 12px;&quot;&gt;&lt;span style=&quot;border-color: var(--border-color); color: rgb(0, 0, 0); font-family: Helvetica; font-style: normal; font-variant-ligatures: normal; font-variant-caps: normal; font-weight: 400; letter-spacing: normal; orphans: 2; text-indent: 0px; text-transform: none; widows: 2; word-spacing: 0px; -webkit-text-stroke-width: 0px; background-color: initial; text-decoration-thickness: initial; text-decoration-style: initial; text-decoration-color: initial;&quot;&gt;n&lt;sub&gt;ут&lt;/sub&gt;&lt;sub style=&quot;&quot;&gt;&amp;nbsp;&lt;/sub&gt;-&amp;nbsp;&lt;/span&gt;&lt;/font&gt;&lt;/font&gt;норма утяжелителя при повышении плотности на 100 кг/м&lt;sup&gt;3&lt;/sup&gt;&lt;p style=&quot;margin-left:0cm;mso-add-space:auto;text-indent:&lt;br/&gt;35.45pt;line-height:150%&quot; class=&quot;MsoListParagraph&quot;&gt;&lt;span style=&quot;font-size:14.0pt;line-height:150%;font-family:&amp;quot;Times New Roman&amp;quot;,serif&quot;&gt;&lt;/span&gt;&lt;/p&gt;" style="text;whiteSpace=wrap;html=1;align=left;" vertex="1" parent="WIyWlLk6GJQsqaUBKTNV-1">
          <mxGeometry x="412.93" y="681.75" width="320" height="40.25" as="geometry" />
        </mxCell>
        <mxCell id="seuhetFpFGsYk8d8X-mT-113" value="" style="shape=image;verticalLabelPosition=bottom;labelBackgroundColor=default;verticalAlign=top;aspect=fixed;imageAspect=0;image=data:image/png,iVBORw0KGgoAAAANSUhEUgAAAQkAAABMCAYAAAB+ikIPAAAMf0lEQVR4nO2dT2zT5hvHv/z0Oybi4B5a9dSgtOIyFVCmjVGKmiCFlWkbon+GtmwHmk7rJKAtGpwQJ5CWlu3Apill2uiktmLaYUm2AxsapdIkUJKKGzG0u7TOAR+CLaFJk94dhl/stHHsxHHz5/lIkerWdt4+fv31+77P9329izHGQBAEUYL/7XQBCIKob0gkCIIwhUSCIAhTSCQIgjCFRIIgCFNIJAiCMIVEgiAIU0gkCIIwhUSCIAhTSCQIgjCFRIIgCFNIJAiCMIVEgiAIU0gkCIIwhUSCIAhTSCQIgjCFRIIgCFNIJAiCMKUmIpHNZhGNRtHT04Ndu3bxT09PD6LRKLLZbC2+liCIGuCYSKiqimvXrqGtrQ2jo6PYu3cv7t69C8YYGGNQFAUff/wxfvrpJ+zfvx+vvvoqRFF06usJoqGRJAl79uwxPFRLfWZmZrYcn81m0dbWVvKYUCgEVVUrKxxzgIWFBSYIAhMEgcXjcdN9c7kc8/l8DAATBIFlMhknikAQTcPCwgIDYPgEg0GWy+VMj1MUhU1OThqOCwQCZY8rR1UioS+UnRs+kUjwf8Ln87HNzc1qikEQTUckEuH3iJ17K5PJMEEQGAAWi8UcKUvF3Q1JkjAwMIDZ2VkIgoDbt29j3759lo49cuQIgsEgAGBtbQ0XLlyotBgE0fT09vbC7/db2vfOnTuQZRmxWAxTU1OOfH9FIiFJEt5++208ePAAAPDdd99ZFggA8Hg8OHbsGN9eWVmBJEmVFIUgmp7Ozk54PJ6y+0mShK+++gqRSMQxgQAqEAlVVfHBBx9wgYhEIjh+/LjtLx4YGIAgCAD+a02k02nb5yCIZkRVVWxsbNg+7sKFC+jq6sL169cdLY9tkZiYmMDvv/8OAPD5fLh69aojBbl165Yj5yGIRkdRFKyvr/PtV155pewxyWQSqVQKn3/+uaVWhx1siUQymcTNmzf59ieffIKOjg5HCrKxsVF5ioYgmpienh7Tv0uShDNnztju9lvFskioqoovvviCb/t8Ppw6dcrxAhFEq5PP51EoFCztq3X/Dx06VFG33wqWReKbb77h3Qyg+lbExsYGZFnm21YHZ1qdfD6Pe/fu4caNGxgfH8cbb7yxrVEmn89jamqKG2yqMtM0KaIoIhqN8hi1tbVhbm6O/z2fz+PatWsYGRlxNXb6e0MQBHR2dpbcd2JiAgAcH4cwYCVPurm5yQ1QcMgEFYvFDKaPSCRS1flagUgkwrq7u3keXPsU58M1cxuKDDkU4/9QFIWNjY0xAGxycpJJksR/Pzw8zGKxmMHL43bcrPqIEomEK4ZESyKhLzReuL8URanqi/Vmke0qOmGOPn6JRIL/PhaLMUEQ2MLCAmOMsXg87uh1a3Q0s1Gpm2tzc5OFQiEWCoW2ja8b6B+gpURC+z/cKJul7kZx5uHYsWNVdQ0kScLKygrfFgQBAwMDFZ/PLcr54+1+9uzZU5E/RJ8i8/l8OHDgAABgZmYG9+/fx19//YXR0VEAQHt7u3MBaHCSySSOHj0KACXNf16vF4wx/PbbbwCM8d0Jurq64PV6Db9TVRXnz5/H4OBgzcYh9Py/3A61uKGLB2Z2795NldkGoihidXUVAHDo0CF0dHQgmUzi/v37uHHjhkHAHz16xH9u5XGfZDKJt956CwCQSCQsZwG0+LrJw4cP+c/bXTNXxiF0lBWJdDqNtbU1vu3EDa1ZRzV24kJUwr59+/D06dOdLoYhfkNDQ8hms7h+/Tq+/fZbQ4VSVRW//vor3x4aGnK9rPVANpvFRx99BMC++c+KR8FJyhmpND/E7du33RP8cv0RpwcYazEI2kooisKCwSCP3fLyMhseHt42hvrJPo06kS4ej1ueYbwd+nhZiYG+flZSN50sL4rG6rTr6fb4nesiUTwISiPu9tBX4mAwyE6cOFGy0uivXSPGWS9yld60+vpm5ebSf6fdgV4nylv8ENUGJjXx2InrWLa7oe8fAdU1v4oNWYIg4OzZsxWfrxXRd/+eP38OABgfH9+yH3U1jPXNqvlP35WrdoC+EkoZqSYmJrC+vo75+XlXywPAfnejmqYOtSKqx+o6A83Q1WCsuua7Xa9Dqae4W+VlzHjdtOvrlh+iFK6JRHFfqxErbnFzstqP3RgUV2Kzit/oXQ0nKOUlKYUVf0KtKTZSpVKpHRmH0FPWJ6Gf0g1s7X5YRW/rFgQBP/74Y0NkNOoJfVfDbAYudTWMqfty1mbgvwzIlStX+PZOZdz0KetCoYBz585hcHDQ0fUh7FJWJPx+P3p7e/l2JbM1k8kkpqen+XatZqvVGi0Fyl4s7lvt58mTJ7Yqor4Cmc2d0fsodtoMtFPo+/bl0vaSJOHkyZOGtHw9CKssy/jnn38cW46hUsqKhMfjMQwurq6u2lrlWp+jBoCFhQVXXGLNhr51UM7Qph98axQPyk6hqirOnj2LTz/9FD6fD8DOCqu+pV4vLW5Ltmz9mpSyLBsyFGaIosgVWhAEJBIJbhcm7KFvHZiteViqq3H58uWWfd9JoVBAPp/f8ntRFDE0NIR3330Xfr+fd+U0K/Ty8jIWFxddK2exkerixYtVt7i1qQTVzAK2JBIejwfz8/NcaW/evLnt2v96FhcX8frrr2NtbQ1jY2P4888/qQVRBVZTc/pVjbQn4tzcHA4cONCQXbxK0XeTZVnGyZMneQtYe0fM8ePH8eGHH2J0dNTQldPWX/3hhx/Q39/vfuEBx9eprAo7o5y5XI4FAgE++jo2NmZIyyiKwlKpFN8nEAiQm9IhtJH6cqmw4jTzwYMH+YzQVqM4FvpP8fso9JmQUCjERkZGqn5fhV207FW9Zf4qeu9GKpVi4XB4S+C7u7tZOBxmc3NzLT8l2UmKXZZmsd3c3OQiHQ6HXa/o9UYmkzE82MLhMEulUlv207wIeLHGxE7U30wmw7q7u+vuwVrxy3m0F/PUwuSRSqXY2NgYCwQCBkXVbpbJyUnGmFH9tZsnl8vxBUX0N5S+FURrVxiheDcf+lZUteuIVCQSmjGqFgJRvBiN3gSzXXNMP+klk8mw2dlZJkkSCwaDfL9MJsOWlpb48a1qLtoOinfz4tR8D9tL6ouiiIGBAayurtp6a5dVvv/+eyiKgkgkAsDoDejo6MDKygpOnDjBF+K4c+cOAGDv3r34+eefce7cOTDGsL6+jq6uLjx+/BjpdBrDw8M8d+729N96huLdvGgZsWo9H7ZEIpvN8oxFLQRCw+PxlPzH0uk0+vv74fF4eLrP5/MhnU4jGo3yfdbW1tDX14dcLofTp08DeJkhKLdEeatB8W5ONEEv5zYth2WRWFxcLLv0lx0kScL58+dL5m47OzshCILBXCJJEu7evYsjR44AeJnuKxQK6O/v56aTR48eQRAEqKqKN998EwAMFbwVHYjloHg3Hw8fPrT1HtFSWBKJmZkZvPfee5BlGbIsY//+/Xydxra2NkSjUfzyyy+Wv1QURczOzuLSpUu2puKmUimcOnWKH6M9wV577TUcPnwYwMvKKcuyoSJrTS9yIFqH4t24aHNXnFiy0HQ9CVVVMTExYXhrVzGyLCMejyMejwMAAoEAxsfH0d/fj/b2dl5AVVUhiiK+/vpreL1eXL582bTw7e3t2L17N58r8scffwCAoQWjLdCrbyprlTMYDPInIPDyXQb14MmvRyjezYUm6F9++WXV5zJtSSiKgr///hu5XI5PShJFEcvLy5ienkZ3d/eWYx48eIDTp0/D7/fD6/XyFofX68X4+DjeeecdzMzM2FI3SZKQTqd5Xxd4aWEtbs5qlbPYlXjr1i2+7+PHjy1/dytC8W58tC5gZ2dn9fF3Is2yvLzMpqen2cGDBw3pNEEQWDgc5mkyu+fV0qwjIyNbHGhaKq44vROJRLakZrVUXDAYZEtLS3VnVqkHKN7Ng3YttfUoKln8Rk/Z5evK4fF40NfXh76+vmpPVZLPPvtsS792u+as1g8rNVjz7Nkz+P3+lprDUAkU7+agUCjg2bNnhhZhJexijDGHyuQ4U1NTeP/996mSuQTFm9iOuhWJZDIJADRz1CUo3kQpbDsu3SCbzSKfz1OFdQmKN2FG3YjE1NQUQqEQ7t27t2VknXAeijdhlboQCVVV8fTpU6yurmJjY4MqbI2heBN2qNsxCYIg6oO6aEkQBFG/kEgQBGEKiQRBEKaQSBAEYQqJBEEQppBIEARhCokEQRCmkEgQBGEKiQRBEKaQSBAEYQqJBEEQppBIEARhCokEQRCm/AuwkZII9/GLwgAAAABJRU5ErkJggg==;" vertex="1" parent="WIyWlLk6GJQsqaUBKTNV-1">
          <mxGeometry x="161.85" y="676.6899999999999" width="195.68" height="56.12" as="geometry" />
        </mxCell>
        <mxCell id="seuhetFpFGsYk8d8X-mT-114" value="" style="rounded=1;whiteSpace=wrap;html=1;absoluteArcSize=1;arcSize=14;strokeWidth=2;" vertex="1" parent="WIyWlLk6GJQsqaUBKTNV-1">
          <mxGeometry x="106.75" y="811.3" width="310" height="66.25" as="geometry" />
        </mxCell>
        <mxCell id="seuhetFpFGsYk8d8X-mT-115" value="" style="strokeWidth=2;html=1;shape=mxgraph.flowchart.annotation_2;align=left;labelPosition=right;pointerEvents=1;" vertex="1" parent="WIyWlLk6GJQsqaUBKTNV-1">
          <mxGeometry x="416.75" y="796.06" width="26.37" height="100" as="geometry" />
        </mxCell>
        <mxCell id="seuhetFpFGsYk8d8X-mT-116" value="&lt;div style=&quot;border-color: var(--border-color);&quot;&gt;&lt;b&gt;Количество реагента согласно рецептуре раствора&lt;/b&gt;&lt;br&gt;&lt;/div&gt;" style="text;whiteSpace=wrap;html=1;align=left;" vertex="1" parent="WIyWlLk6GJQsqaUBKTNV-1">
          <mxGeometry x="461.15" y="760" width="276.86" height="34.06" as="geometry" />
        </mxCell>
        <mxCell id="seuhetFpFGsYk8d8X-mT-117" value="&lt;p style=&quot;margin-left:0cm;mso-add-space:auto;text-indent:&lt;br/&gt;1.0cm;line-height:150%&quot; class=&quot;MsoListParagraph&quot;&gt;b – понижающий коэффициент при комбинированных обработках&lt;/p&gt;&lt;p style=&quot;margin-left:0cm;mso-add-space:auto;text-indent:&lt;br/&gt;35.45pt;line-height:150%&quot; class=&quot;MsoListParagraph&quot;&gt;&lt;span style=&quot;font-size:14.0pt;line-height:150%;font-family:&amp;quot;Times New Roman&amp;quot;,serif&quot;&gt;&lt;/span&gt;&lt;/p&gt;" style="text;whiteSpace=wrap;html=1;align=left;" vertex="1" parent="WIyWlLk6GJQsqaUBKTNV-1">
          <mxGeometry x="443.12" y="780.8199999999999" width="312.93" height="60" as="geometry" />
        </mxCell>
        <mxCell id="seuhetFpFGsYk8d8X-mT-119" value="" style="shape=image;verticalLabelPosition=bottom;labelBackgroundColor=default;verticalAlign=top;aspect=fixed;imageAspect=0;image=data:image/png,iVBORw0KGgoAAAANSUhEUgAAAaQAAAA7CAYAAAA0C/4XAAAQDElEQVR4nO2dz4scRfvAn/3yXiX2ricRD9uzB1HYYHoTMUZIwPS4Jz1Ib24BD3EmN5Ek9OJJE50RFDxkJxAht+kFT8LIjoEVnEESXWUGBC/pwYN46nYR/4B+D/t9+n26pvrHdFfvzOw8H2i2Z6e7qqa663nqx/M8tRQEQQAMwzAMM2X+b9oFYBiGYRgAVkgMwzDMjMAKiWEYhpkJWCExDMMwMwErJIZhGGYmYIXEMAzDzASskBiGYZiZgBUSwzAMMxOwQmIYhmFmAlZIM85oNIKlpaWxY3l5edpFYxiGUUpuheT7PjiOA1tbW1CpVCLCslqtQrPZhNFopLKsC8nq6ioEQQCtVivy/7Nnz06pRAzDzDPNZlPaycVje3s79l5R1otHYZkf5KDRaASapgUAkHhomha02+08WTASaN02Go1pF4dhmDml1WpJ5XWv10u8z3XdoFarjd1rGEbgum7hck2kkDzPCwzDiBSkVqtFfsRgMAgsy4pcw0pJDbRO014chmGYJERZbtt2pvs8z4vcp+t64HmekjJlnrIbjUawtrYGBwcHAACgaRoMBgO4e/cuvPbaa+F16+vr4DgO1Gq18H/1ep2n7woyHA4jn2mdMwzDTMo777wT+fzmm2/mSufBgwewsrKiokjZ1pB83wfLsuDw8BAAjpTR999/D+vr67H3fPTRR+H54eEhfPXVVwWLutg8evQoPDdNc4olYRjmJPD888/nuu/hw4fhea1WU9o5zqSQrl+/Ho6MAAC++eabRGUEALCyshIRnLu7uzmLyABER0iXLl2aYkkYhjkJPPfcc7nue/DgAQAcDUzowEMFqQqp3+9HlIlt25k14pkzZ8Jz13VzFI9Bvvvuu/D8pZdemmJJGIZZVPr9PnS7XQAA+OSTT5RN1SGpCunq1avhuaZp8P7772dO/NSpU5HP4joIkw3f9yMK/dy5c1MsDcMwi8rHH38MAAC6rsO1a9eUp5+okBzHiQjCW7duFdKI//77b+57F5nHjx+H54ZhRJ6B4ziwsbER+gGUaUCC/gvH5ZQ7Go2g2WxCtVod83eoVqtQr9eh3+8ry6/f74fpq+489ft92NraguXl5bD8sjzwOizHxsaG0t/IzBf4Hty7d0952s8++2zk859//pl4veM44egIp+2Uk2SCZ5pmxLxvUjtz27Yj9w8Gg0ImgYsKrUc0zfQ8b+z54KFpmjIzTEqj0QgAIDBNU3naFM/zpL4OskOl+Xuv1wvTVYnYDvAQ6zHuOm47i0sZ77ksfcjg26jreuntP3aENBqNQm0IAGBZFqyurk6k7H755ZfI5zRDCEYOrcfz58+D7/tQrVYjz4dyeHgIH374ofJyiFOwZTAcDqFarcLOzg4AHI0IO50OBEc+c9Dr9SLXv/DCC8ryfuqpp5SlBQDhc7pz5w7Ytg2e58FgMAi/p8+vXq/DnTt3YtMqo4fMzD6apk27CABwNDuCs2V3794tL6M4TSV68uZxbqWOV5qmFdCb6okbXag6VPZoaLrUU9q27XDU2uv1ItEzitZ3q9UKbNuOjLRwBFGr1cautSyrUH5BcDQywl6YLB8EHa8Nw8id12AwCEzTHBv1w/87+lF6vV5gGEauUWetVhtrO/R5BsH/2pphGOF7Iz7PskelzHTBGQ9RbqCcou+p67rSa/NA38W4EZLneeG7mNV5Nnd54r4QBXaexkjvn7UGNS8KiU4j6boeCi9ZB0HVFCn1xNZ1PSIk6YuLQh2vbbVa+X9oEH0mSe8LTh3GKawsYGdJ07RIuWne4tShCqWLeaACGgwGsb+FRjyZtfbDqEWclkd5i20CoWHbVHTyaQcwTiFh2cpaCqDEKiQq2PL0RKkgTfqxTDJ0pKrremJ8QLHOiyhFMWaVbduh8LRtO1QKWK6i4aE6nU5kdKciLlYSnudFGjeOlnRdD0zTDNrtdqThNxoNJY2RPiPLsgLDMGKVDa3jIsqXmQ/a7XaoILAjiG0QR+n0fVDRRmgnUCajXdcNvz+OEHBShYSCp0hjEHvrnU6ncGEXETEuYNKQWaVCQqhior0p2eiiCFl6amVAFRMeYn2r7BWKU+FJccBUjj6Z+UFUTOJMk8rOWppCUjE9PglShUR7q3kbgxi4r+yh3kmFCsi0IIZlKCSk3W6PdVJUPVOxA1T26CiuDLSuVUUvFhE7GEnPiAojtrJbLMRA1lkicechaZqcypOseVPdkWdEJVVIdKogj2CjwzyVc++LhliPaQ9Y7EiommLCl5ZOYaFSUtFI6Gj6uHpiiDg1SUdJOHWnEqpkktaF6LOfNYMgpjzEqWT6F9eQVXbuk9Ypsd1PIr9pW87TicoUy25Sc9ivv/468vmtt96a6H7miJ9++ik81zQN3njjjcTrf/vtt/Bc1/VCTsxofn3hwgXodrtgWVYYz/DWrVvQarXAcRy4cOECVKvVQs6bNCySGIG4LHzfh3q9Drquw87ODhiGAYPBAHRdh7Nnz0Kv14MnT57AlStXoFKpgOM4hfMcjUYRR3MaBUWEPvvLly8XzpuZfZrNJqytrcHNmzcBAKDT6YS7JhwcHEClUoH33nsP1tbWoNlsgu/7hfN8+eWXpf9HJ1hN0xLdEUTQRUXTtHxuPjItJY6QJkWcZmLyQXsbWXopdPhdZBGcWtlpmhau/4lWdmh+itfmXeeg79px7fNEp0Po3DlA1Mpu0meQxCQjWNpzZYOgk4/4nsVZ2bVaLaVWdlTW0xESjuSP+91TrpBU+C8dB/Ng9k2FZpqwFzfNKmpEkuSHJArmIn5I4vrRcSmkJD8ksaEX8UOiTDI1STt1vBnjySfND4lOf6n0Q5IpJPyfyo33spJJIWVd3KUOVFka3TSZdYUkKpi09EQz7DLAzoZKn5gyDTEmhSrHMhDNdrOUo6yyMPMBytOy2oWokKgMn8ZgQrqGJG5v8Ndff8kuG+P69evhJn4AAPfv30+8vtlshsEmt7e3I9/RoKHLy8vQbDYzlSEre3t7YTiaMo6im1b9/vvvkc9J6fm+D59++mn4GSPyquaff/4pJd1JcBwH6vV6KWmXHfyX7in2+uuvx15HQwqlbcaIa2HYTuhal+/70Gw2oVKpwNLSElQqFfj2228L/ALmuKHytAxeffXVyOfPP/8cDg8PwTRN2NraypQGBl2mR+4AzzItJY50sqxHiKOqpCkm0aQRSO/Y87wx01g8ZnX6rwwmmTalVmJljkppmVRCf2fSnDXmX5bjbB4z1zxpQ8qsQ9b1I9FUnT6bwWAgbWNpebdarch9uq4nmvh7nhe02+3AsqyIBaFhGLHTxqJvTdwhewadTidSP5qmBZZlSS26ZMFqqQyhzs+y+s4zi6KaLO9BEeh7SetiUgs5MaJMXmJrcJIwNGJk5jQFZhhG6IlMp6ZwLUIWrqZsYTtriI0hrv7pc9I0bS79VUTBSU1bUeDRa+bxN1JlnrYYHeesiOsMg8EgcF030DQtXAejBhO9Xi+MOIHKh+Yvc66mnUTsTFKjDlnYGJqm7B6A+LVMzGsS3xeUM1RBUv84mQJLKwutN1HoU7NnzE8W8b6sjtpxIHaUssjvOPD+IsY/sTUoc8xqt9tjgkLs7WQZxXQ6ncjLTRWObCGNNtBFQey5YdwzpNPpROplXpVREIxbn8UdSWGTZh3aq09rsPS54rUYbJXWAa0LseMmywO/l60BYp6ymQ2UA6KgwntkAgzlQtxvRUUhKwsNl4Og0Jelh2nJeuZpW4rQDnGWwKZxW7BgHc0bokLKG6+O+s0ViSqSWINJe+6IB/bcJoUu4MYJ1UVTSLRObNuWTsskKat5JG3/I13X5/o30meY1mDF6dosz5lat8ZZBMYpJCqUZPfFjQBkFmBIksKhacq+x/cfFQRdQpCNcpJGVVn2uEpSSKICjCs31v+8IRpP5Z0apJ3KIu00Uw3ivK1s7rdWqxUqAG1IcZWxaAqp0+lEesLovS2OWC3LmtsRgwxxfQAb/rz/RjHiRpb1KdFEPE2J0XqLSz9OIaUpjzzCJm0zx0k2e6T5yxCn/SlFFFLRcs8LtNOXF/q+FuE/kIHNzU3Y3NwEgCMP/tOnT4ffra+vF9p4D7dx1jQN3n333cRrZ2WzqrLZ3NyEv//+O/y8srICN27cgBs3bkyxVOWD75mKqAizxOrqKhy1++zcvn0bbt++nfl6tOAzTTPVwvPpp5+OfEbv+m63C0tLS4n3lm2JKINGIEkr3yxYgs4bk76bMjDaSppVaBqZFBJlfX0ddF0PQ6Dcv38frl27lrsA+EMuX74cG+oGw6hwCBWGGYeGJHr77bel12DHDwDg4sWL0mtM04S9vb2J8x8Oh9DtdmF/fx9834+Yt6umiPBMU2ZMfvCZX7p0qVA6mWLZiViWFSlIXptz2pDiYioNh8PQFp9j4jHMODTu3Ysvvii95tGjR+F5WkzErGC8w9OnT8P+/j5cvXoVvvjiCwiCABqNhpI8VBLE+AwyxaBxLEUf1knJpZDEqTXbtseucRwHqtVqYjq0IYkOWsi9e/cA4ChYaFZHLYZZJH744YfwPG667rPPPgMAgFqtBqurq5HvcArvyZMnmfP0fR8uXrwI3W4XWq0W7O3twdbWVmGHcBmnTp0Kz3M7XDKl8eOPP4bn586dK5RWLoW0uroaRqEFANjd3Q0VB3qHX7lyBc6cOZOYDm1IMkajEezs7AAAwJdffpmnqAxz4qHR0mU4jgOu64KmafDBBx+MfY9TeK7rxkZtHw6HkbW9hw8fhjMXsin7P/74I3P503jllVfCc3EnAQTlDnP8/Prrr+E5LruI70tm8lpDiNEcxCOLZRS12hMtXKgfFG/fzDByRAs+ERrNIa5N0rYsc71AHyjqmE4dUsXIDzQCQpwze5plnwi1tBV/h+u6gWEY0ggeaRZ6QTCZld2k5V4E6LPxPE/6vmSlkI2e53lBrVaLvMxZ93oX7d+p9zXdPz5py26GWXSSdndGxZDFoRhdDTAdwzAC0zQjDq7UR4kqMV3XA9u2g0ajEZimGZimGSmXzLeJujBkccR0XTfSgcVIFJhOnI8WNUeOC0WE32eRNbQMvAv2EbIQTRiodVKm5tgjvghi1AFVu5EyzEmGCgPRVw0VRda4f7h7rrirbZwyGwwGEf8nwzDCa8UYaTQN0Z8xawQOmT+eYRhBo9GQCj/R2VrMh47yaMc47rfmLfdJhwZQ0HW9UNy9pSCYjpnJ9vZ2uBOh53mFdjdlmEVlY2MDDg4OwDAM+Pnnn6ddHIYpRC6jBhXgQqxhGKyMGCYH1OeHffSYk8BUFBI3JIYpzuPHj8Pz8+fPT7EkDKOGqSgkuvmc67rg+/40isEwcw0NqUPPGWZemYpCoo5Uu7u78Mwzz8T6PzAMI2d/fz88v3nzJofGYeaeqRk1MAzDMAxlakYNDMMwDENhhcQwDMPMBKyQGIZhmJmAFRLDMAwzE7BCYhiGYWYCVkgMwzDMTMAKiWEYhpkJ/guZ812TkqlsswAAAABJRU5ErkJggg==;" vertex="1" parent="WIyWlLk6GJQsqaUBKTNV-1">
          <mxGeometry x="123.68" y="824.4200000000001" width="284.75" height="40" as="geometry" />
        </mxCell>
        <mxCell id="seuhetFpFGsYk8d8X-mT-120" value="&lt;p style=&quot;margin-left:0cm;mso-add-space:auto;text-indent:&lt;br/&gt;1.0cm;line-height:150%&quot; class=&quot;MsoListParagraph&quot;&gt;с – повышающий коэффициент при дополнительных условиях&amp;nbsp;&lt;br&gt;&lt;/p&gt;&lt;p style=&quot;margin-left:0cm;mso-add-space:auto;text-indent:&lt;br/&gt;35.45pt;line-height:150%&quot; class=&quot;MsoListParagraph&quot;&gt;&lt;span style=&quot;font-size:14.0pt;line-height:150%;font-family:&amp;quot;Times New Roman&amp;quot;,serif&quot;&gt;&lt;/span&gt;&lt;/p&gt;" style="text;whiteSpace=wrap;html=1;align=left;" vertex="1" parent="WIyWlLk6GJQsqaUBKTNV-1">
          <mxGeometry x="443.12" y="816.06" width="312.93" height="60" as="geometry" />
        </mxCell>
        <mxCell id="seuhetFpFGsYk8d8X-mT-121" value="&lt;p style=&quot;margin-left:0cm;mso-add-space:auto;text-indent:&lt;br/&gt;1.0cm;line-height:150%&quot; class=&quot;MsoListParagraph&quot;&gt;n&lt;sub&gt;реагент&lt;/sub&gt; –&amp;nbsp;норма расхода химического реагента, т/м3&amp;nbsp;&lt;br&gt;&lt;/p&gt;&lt;p style=&quot;margin-left:0cm;mso-add-space:auto;text-indent:&lt;br/&gt;35.45pt;line-height:150%&quot; class=&quot;MsoListParagraph&quot;&gt;&lt;span style=&quot;font-size:14.0pt;line-height:150%;font-family:&amp;quot;Times New Roman&amp;quot;,serif&quot;&gt;&lt;/span&gt;&lt;/p&gt;" style="text;whiteSpace=wrap;html=1;align=left;" vertex="1" parent="WIyWlLk6GJQsqaUBKTNV-1">
          <mxGeometry x="443.12" y="856.06" width="312.93" height="40" as="geometry" />
        </mxCell>
        <mxCell id="seuhetFpFGsYk8d8X-mT-124" value="" style="endArrow=classic;html=1;rounded=0;exitX=0.5;exitY=1;exitDx=0;exitDy=0;" edge="1" parent="WIyWlLk6GJQsqaUBKTNV-1" source="seuhetFpFGsYk8d8X-mT-33">
          <mxGeometry width="50" height="50" relative="1" as="geometry">
            <mxPoint x="100" y="180" as="sourcePoint" />
            <mxPoint x="237" y="150" as="targetPoint" />
          </mxGeometry>
        </mxCell>
        <mxCell id="seuhetFpFGsYk8d8X-mT-125" value="" style="endArrow=classic;html=1;rounded=0;exitX=0.459;exitY=1.009;exitDx=0;exitDy=0;exitPerimeter=0;" edge="1" parent="WIyWlLk6GJQsqaUBKTNV-1" source="seuhetFpFGsYk8d8X-mT-64">
          <mxGeometry width="50" height="50" relative="1" as="geometry">
            <mxPoint x="60" y="290" as="sourcePoint" />
            <mxPoint x="236" y="250" as="targetPoint" />
          </mxGeometry>
        </mxCell>
        <mxCell id="seuhetFpFGsYk8d8X-mT-126" value="" style="endArrow=classic;html=1;rounded=0;" edge="1" parent="WIyWlLk6GJQsqaUBKTNV-1">
          <mxGeometry width="50" height="50" relative="1" as="geometry">
            <mxPoint x="240" y="320" as="sourcePoint" />
            <mxPoint x="240" y="370" as="targetPoint" />
          </mxGeometry>
        </mxCell>
        <mxCell id="seuhetFpFGsYk8d8X-mT-127" value="" style="endArrow=classic;html=1;rounded=0;" edge="1" parent="WIyWlLk6GJQsqaUBKTNV-1">
          <mxGeometry width="50" height="50" relative="1" as="geometry">
            <mxPoint x="244.49" y="437.87" as="sourcePoint" />
            <mxPoint x="244" y="470" as="targetPoint" />
          </mxGeometry>
        </mxCell>
        <mxCell id="seuhetFpFGsYk8d8X-mT-128" value="" style="endArrow=classic;html=1;rounded=0;" edge="1" parent="WIyWlLk6GJQsqaUBKTNV-1">
          <mxGeometry width="50" height="50" relative="1" as="geometry">
            <mxPoint x="244.49" y="535" as="sourcePoint" />
            <mxPoint x="244" y="570" as="targetPoint" />
          </mxGeometry>
        </mxCell>
        <mxCell id="seuhetFpFGsYk8d8X-mT-129" value="" style="endArrow=classic;html=1;rounded=0;" edge="1" parent="WIyWlLk6GJQsqaUBKTNV-1">
          <mxGeometry width="50" height="50" relative="1" as="geometry">
            <mxPoint x="245" y="640" as="sourcePoint" />
            <mxPoint x="245" y="670" as="targetPoint" />
          </mxGeometry>
        </mxCell>
        <mxCell id="seuhetFpFGsYk8d8X-mT-130" value="" style="endArrow=classic;html=1;rounded=0;exitX=0.47;exitY=0.997;exitDx=0;exitDy=0;exitPerimeter=0;entryX=0.457;entryY=-0.017;entryDx=0;entryDy=0;entryPerimeter=0;" edge="1" parent="WIyWlLk6GJQsqaUBKTNV-1" source="seuhetFpFGsYk8d8X-mT-107" target="seuhetFpFGsYk8d8X-mT-114">
          <mxGeometry width="50" height="50" relative="1" as="geometry">
            <mxPoint x="260" y="800" as="sourcePoint" />
            <mxPoint x="260" y="910" as="targetPoint" />
          </mxGeometry>
        </mxCell>
        <mxCell id="seuhetFpFGsYk8d8X-mT-131" value="" style="endArrow=classic;html=1;rounded=0;exitX=0.47;exitY=0.997;exitDx=0;exitDy=0;exitPerimeter=0;" edge="1" parent="WIyWlLk6GJQsqaUBKTNV-1">
          <mxGeometry width="50" height="50" relative="1" as="geometry">
            <mxPoint x="248.5" y="877.55" as="sourcePoint" />
            <mxPoint x="249" y="970" as="targetPoint" />
          </mxGeometry>
        </mxCell>
      </root>
    </mxGraphModel>
  </diagram>
</mxfile>
